G04 #@! TF.GenerationSoftware,KiCad,Pcbnew,(5.1.5)-3*
G04 #@! TF.CreationDate,2022-01-18T15:26:47+01:00*
G04 #@! TF.ProjectId,drop pcb proto 12 external controller,64726f70-2070-4636-9220-70726f746f20,rev?*
G04 #@! TF.SameCoordinates,Original*
G04 #@! TF.FileFunction,Legend,Top*
G04 #@! TF.FilePolarity,Positive*
%FSLAX46Y46*%
G04 Gerber Fmt 4.6, Leading zero omitted, Abs format (unit mm)*
G04 Created by KiCad (PCBNEW (5.1.5)-3) date 2022-01-18 15:26:47*
%MOMM*%
%LPD*%
G04 APERTURE LIST*
%ADD10C,0.127000*%
%ADD11C,0.120000*%
%ADD12C,0.150000*%
G04 APERTURE END LIST*
D10*
X164294200Y-22538280D02*
X164294200Y-38538280D01*
X185644200Y-22538280D02*
X164294200Y-22538280D01*
X185644200Y-38538280D02*
X185644200Y-22538280D01*
X164294200Y-38538280D02*
X185644200Y-38538280D01*
D11*
X75904400Y-153720800D02*
X75904400Y-155050800D01*
X75904400Y-155050800D02*
X74574400Y-155050800D01*
X75904400Y-152450800D02*
X73304400Y-152450800D01*
X73304400Y-152450800D02*
X73304400Y-155050800D01*
X73304400Y-155050800D02*
X58004400Y-155050800D01*
X58004400Y-149850800D02*
X58004400Y-155050800D01*
X75904400Y-149850800D02*
X58004400Y-149850800D01*
X75904400Y-149850800D02*
X75904400Y-152450800D01*
X152160280Y-153426160D02*
X152160280Y-154756160D01*
X152160280Y-154756160D02*
X150830280Y-154756160D01*
X152160280Y-152156160D02*
X149560280Y-152156160D01*
X149560280Y-152156160D02*
X149560280Y-154756160D01*
X149560280Y-154756160D02*
X134260280Y-154756160D01*
X134260280Y-149556160D02*
X134260280Y-154756160D01*
X152160280Y-149556160D02*
X134260280Y-149556160D01*
X152160280Y-149556160D02*
X152160280Y-152156160D01*
X184555440Y-154213560D02*
X184555440Y-155543560D01*
X184555440Y-155543560D02*
X183225440Y-155543560D01*
X184555440Y-152943560D02*
X181955440Y-152943560D01*
X181955440Y-152943560D02*
X181955440Y-155543560D01*
X181955440Y-155543560D02*
X166655440Y-155543560D01*
X166655440Y-150343560D02*
X166655440Y-155543560D01*
X184555440Y-150343560D02*
X166655440Y-150343560D01*
X184555440Y-150343560D02*
X184555440Y-152943560D01*
X103758040Y-153466800D02*
X103758040Y-154796800D01*
X103758040Y-154796800D02*
X102428040Y-154796800D01*
X103758040Y-152196800D02*
X101158040Y-152196800D01*
X101158040Y-152196800D02*
X101158040Y-154796800D01*
X101158040Y-154796800D02*
X85858040Y-154796800D01*
X85858040Y-149596800D02*
X85858040Y-154796800D01*
X103758040Y-149596800D02*
X85858040Y-149596800D01*
X103758040Y-149596800D02*
X103758040Y-152196800D01*
X73495800Y-142225400D02*
X73810800Y-142225400D01*
X71070800Y-142225400D02*
X71385800Y-142225400D01*
X73495800Y-147465400D02*
X73810800Y-147465400D01*
X71070800Y-147465400D02*
X71385800Y-147465400D01*
X73810800Y-147465400D02*
X73810800Y-142225400D01*
X71070800Y-147465400D02*
X71070800Y-142225400D01*
X53821240Y-134808240D02*
X53821240Y-134308240D01*
X53081240Y-134808240D02*
X53821240Y-134808240D01*
X48842240Y-128244240D02*
X48949240Y-128351240D01*
X46257240Y-125659240D02*
X46647240Y-126050240D01*
X49104240Y-128035240D02*
X49185240Y-128116240D01*
X46492240Y-125424240D02*
X46842240Y-125774240D01*
X46257240Y-130739240D02*
X46472240Y-130955240D01*
X42461240Y-124288240D02*
X53581240Y-124288240D01*
X42461240Y-134568240D02*
X53581240Y-134568240D01*
X53581240Y-134568240D02*
X53581240Y-124288240D01*
X42461240Y-134568240D02*
X42461240Y-124288240D01*
X44321240Y-134568240D02*
X44321240Y-124288240D01*
X50521240Y-134568240D02*
X50521240Y-124288240D01*
X53021240Y-134568240D02*
X53021240Y-124288240D01*
X49651240Y-126888240D02*
G75*
G03X49651240Y-126888240I-1930000J0D01*
G01*
X49651576Y-131934971D02*
G75*
G02X49557240Y-132565240I-1930336J-33269D01*
G01*
X48909415Y-133489885D02*
G75*
G02X46532240Y-133489240I-1188175J1521645D01*
G01*
X46506631Y-133468557D02*
G75*
G02X46506240Y-130468240I1214609J1500317D01*
G01*
X46533065Y-130446595D02*
G75*
G02X48910240Y-130447240I1188175J-1521645D01*
G01*
X49556779Y-131371837D02*
G75*
G02X49651240Y-131968240I-1835539J-596403D01*
G01*
X61211160Y-146475360D02*
X61211160Y-145705360D01*
X61211160Y-138395360D02*
X61211160Y-139165360D01*
X62581160Y-145705360D02*
X62581160Y-139165360D01*
X59841160Y-145705360D02*
X62581160Y-145705360D01*
X59841160Y-139165360D02*
X59841160Y-145705360D01*
X62581160Y-139165360D02*
X59841160Y-139165360D01*
X82754160Y-119304240D02*
X82754160Y-120554240D01*
X108274160Y-119304240D02*
X82754160Y-119304240D01*
X108274160Y-123804240D02*
X108274160Y-119304240D01*
X82754160Y-123804240D02*
X108274160Y-123804240D01*
X82754160Y-122554240D02*
X82754160Y-123804240D01*
X82754160Y-120554240D02*
G75*
G02X82754160Y-122554240I0J-1000000D01*
G01*
X68411160Y-146475360D02*
X68411160Y-145705360D01*
X68411160Y-138395360D02*
X68411160Y-139165360D01*
X69781160Y-145705360D02*
X69781160Y-139165360D01*
X67041160Y-145705360D02*
X69781160Y-145705360D01*
X67041160Y-139165360D02*
X67041160Y-145705360D01*
X69781160Y-139165360D02*
X67041160Y-139165360D01*
X64911160Y-146475360D02*
X64911160Y-145705360D01*
X64911160Y-138395360D02*
X64911160Y-139165360D01*
X66281160Y-145705360D02*
X66281160Y-139165360D01*
X63541160Y-145705360D02*
X66281160Y-145705360D01*
X63541160Y-139165360D02*
X63541160Y-145705360D01*
X66281160Y-139165360D02*
X63541160Y-139165360D01*
X53465640Y-116327200D02*
X53465640Y-115827200D01*
X52725640Y-116327200D02*
X53465640Y-116327200D01*
X48486640Y-109763200D02*
X48593640Y-109870200D01*
X45901640Y-107178200D02*
X46291640Y-107569200D01*
X48748640Y-109554200D02*
X48829640Y-109635200D01*
X46136640Y-106943200D02*
X46486640Y-107293200D01*
X45901640Y-112258200D02*
X46116640Y-112474200D01*
X42105640Y-105807200D02*
X53225640Y-105807200D01*
X42105640Y-116087200D02*
X53225640Y-116087200D01*
X53225640Y-116087200D02*
X53225640Y-105807200D01*
X42105640Y-116087200D02*
X42105640Y-105807200D01*
X43965640Y-116087200D02*
X43965640Y-105807200D01*
X50165640Y-116087200D02*
X50165640Y-105807200D01*
X52665640Y-116087200D02*
X52665640Y-105807200D01*
X49295640Y-108407200D02*
G75*
G03X49295640Y-108407200I-1930000J0D01*
G01*
X49295976Y-113453931D02*
G75*
G02X49201640Y-114084200I-1930336J-33269D01*
G01*
X48553815Y-115008845D02*
G75*
G02X46176640Y-115008200I-1188175J1521645D01*
G01*
X46151031Y-114987517D02*
G75*
G02X46150640Y-111987200I1214609J1500317D01*
G01*
X46177465Y-111965555D02*
G75*
G02X48554640Y-111966200I1188175J-1521645D01*
G01*
X49201179Y-112890797D02*
G75*
G02X49295640Y-113487200I-1835539J-596403D01*
G01*
X124450800Y-119040080D02*
X124450800Y-120290080D01*
X149970800Y-119040080D02*
X124450800Y-119040080D01*
X149970800Y-123540080D02*
X149970800Y-119040080D01*
X124450800Y-123540080D02*
X149970800Y-123540080D01*
X124450800Y-122290080D02*
X124450800Y-123540080D01*
X124450800Y-120290080D02*
G75*
G02X124450800Y-122290080I0J-1000000D01*
G01*
X93654880Y-89043640D02*
X93654880Y-88273640D01*
X93654880Y-80963640D02*
X93654880Y-81733640D01*
X95024880Y-88273640D02*
X95024880Y-81733640D01*
X92284880Y-88273640D02*
X95024880Y-88273640D01*
X92284880Y-81733640D02*
X92284880Y-88273640D01*
X95024880Y-81733640D02*
X92284880Y-81733640D01*
X96886570Y-89043640D02*
X96886570Y-88273640D01*
X96886570Y-80963640D02*
X96886570Y-81733640D01*
X98256570Y-88273640D02*
X98256570Y-81733640D01*
X95516570Y-88273640D02*
X98256570Y-88273640D01*
X95516570Y-81733640D02*
X95516570Y-88273640D01*
X98256570Y-81733640D02*
X95516570Y-81733640D01*
X100118258Y-89043640D02*
X100118258Y-88273640D01*
X100118258Y-80963640D02*
X100118258Y-81733640D01*
X101488258Y-88273640D02*
X101488258Y-81733640D01*
X98748258Y-88273640D02*
X101488258Y-88273640D01*
X98748258Y-81733640D02*
X98748258Y-88273640D01*
X101488258Y-81733640D02*
X98748258Y-81733640D01*
X103349946Y-89043640D02*
X103349946Y-88273640D01*
X103349946Y-80963640D02*
X103349946Y-81733640D01*
X104719946Y-88273640D02*
X104719946Y-81733640D01*
X101979946Y-88273640D02*
X104719946Y-88273640D01*
X101979946Y-81733640D02*
X101979946Y-88273640D01*
X104719946Y-81733640D02*
X101979946Y-81733640D01*
X109813322Y-89043640D02*
X109813322Y-88273640D01*
X109813322Y-80963640D02*
X109813322Y-81733640D01*
X111183322Y-88273640D02*
X111183322Y-81733640D01*
X108443322Y-88273640D02*
X111183322Y-88273640D01*
X108443322Y-81733640D02*
X108443322Y-88273640D01*
X111183322Y-81733640D02*
X108443322Y-81733640D01*
X113045010Y-89043640D02*
X113045010Y-88273640D01*
X113045010Y-80963640D02*
X113045010Y-81733640D01*
X114415010Y-88273640D02*
X114415010Y-81733640D01*
X111675010Y-88273640D02*
X114415010Y-88273640D01*
X111675010Y-81733640D02*
X111675010Y-88273640D01*
X114415010Y-81733640D02*
X111675010Y-81733640D01*
X116276698Y-89043640D02*
X116276698Y-88273640D01*
X116276698Y-80963640D02*
X116276698Y-81733640D01*
X117646698Y-88273640D02*
X117646698Y-81733640D01*
X114906698Y-88273640D02*
X117646698Y-88273640D01*
X114906698Y-81733640D02*
X114906698Y-88273640D01*
X117646698Y-81733640D02*
X114906698Y-81733640D01*
X121340072Y-89043640D02*
X121340072Y-88273640D01*
X121340072Y-80963640D02*
X121340072Y-81733640D01*
X122710072Y-88273640D02*
X122710072Y-81733640D01*
X119970072Y-88273640D02*
X122710072Y-88273640D01*
X119970072Y-81733640D02*
X119970072Y-88273640D01*
X122710072Y-81733640D02*
X119970072Y-81733640D01*
X124571760Y-89043640D02*
X124571760Y-88273640D01*
X124571760Y-80963640D02*
X124571760Y-81733640D01*
X125941760Y-88273640D02*
X125941760Y-81733640D01*
X123201760Y-88273640D02*
X125941760Y-88273640D01*
X123201760Y-81733640D02*
X123201760Y-88273640D01*
X125941760Y-81733640D02*
X123201760Y-81733640D01*
X144226280Y-145878680D02*
X144226280Y-145108680D01*
X144226280Y-137798680D02*
X144226280Y-138568680D01*
X145596280Y-145108680D02*
X145596280Y-138568680D01*
X142856280Y-145108680D02*
X145596280Y-145108680D01*
X142856280Y-138568680D02*
X142856280Y-145108680D01*
X145596280Y-138568680D02*
X142856280Y-138568680D01*
X140220700Y-145878680D02*
X140220700Y-145108680D01*
X140220700Y-137798680D02*
X140220700Y-138568680D01*
X141590700Y-145108680D02*
X141590700Y-138568680D01*
X138850700Y-145108680D02*
X141590700Y-145108680D01*
X138850700Y-138568680D02*
X138850700Y-145108680D01*
X141590700Y-138568680D02*
X138850700Y-138568680D01*
X136215120Y-145878680D02*
X136215120Y-145108680D01*
X136215120Y-137798680D02*
X136215120Y-138568680D01*
X137585120Y-145108680D02*
X137585120Y-138568680D01*
X134845120Y-145108680D02*
X137585120Y-145108680D01*
X134845120Y-138568680D02*
X134845120Y-145108680D01*
X137585120Y-138568680D02*
X134845120Y-138568680D01*
X176951640Y-146808320D02*
X176951640Y-146038320D01*
X176951640Y-138728320D02*
X176951640Y-139498320D01*
X178321640Y-146038320D02*
X178321640Y-139498320D01*
X175581640Y-146038320D02*
X178321640Y-146038320D01*
X175581640Y-139498320D02*
X175581640Y-146038320D01*
X178321640Y-139498320D02*
X175581640Y-139498320D01*
X173220380Y-146808320D02*
X173220380Y-146038320D01*
X173220380Y-138728320D02*
X173220380Y-139498320D01*
X174590380Y-146038320D02*
X174590380Y-139498320D01*
X171850380Y-146038320D02*
X174590380Y-146038320D01*
X171850380Y-139498320D02*
X171850380Y-146038320D01*
X174590380Y-139498320D02*
X171850380Y-139498320D01*
X169489120Y-146808320D02*
X169489120Y-146038320D01*
X169489120Y-138728320D02*
X169489120Y-139498320D01*
X170859120Y-146038320D02*
X170859120Y-139498320D01*
X168119120Y-146038320D02*
X170859120Y-146038320D01*
X168119120Y-139498320D02*
X168119120Y-146038320D01*
X170859120Y-139498320D02*
X168119120Y-139498320D01*
X96880680Y-146198720D02*
X96880680Y-145428720D01*
X96880680Y-138118720D02*
X96880680Y-138888720D01*
X98250680Y-145428720D02*
X98250680Y-138888720D01*
X95510680Y-145428720D02*
X98250680Y-145428720D01*
X95510680Y-138888720D02*
X95510680Y-145428720D01*
X98250680Y-138888720D02*
X95510680Y-138888720D01*
X92796360Y-146198720D02*
X92796360Y-145428720D01*
X92796360Y-138118720D02*
X92796360Y-138888720D01*
X94166360Y-145428720D02*
X94166360Y-138888720D01*
X91426360Y-145428720D02*
X94166360Y-145428720D01*
X91426360Y-138888720D02*
X91426360Y-145428720D01*
X94166360Y-138888720D02*
X91426360Y-138888720D01*
X88712040Y-146198720D02*
X88712040Y-145428720D01*
X88712040Y-138118720D02*
X88712040Y-138888720D01*
X90082040Y-145428720D02*
X90082040Y-138888720D01*
X87342040Y-145428720D02*
X90082040Y-145428720D01*
X87342040Y-138888720D02*
X87342040Y-145428720D01*
X90082040Y-138888720D02*
X87342040Y-138888720D01*
X196122200Y-135275600D02*
X196122200Y-134775600D01*
X195382200Y-135275600D02*
X196122200Y-135275600D01*
X191143200Y-128711600D02*
X191250200Y-128818600D01*
X188558200Y-126126600D02*
X188948200Y-126517600D01*
X191405200Y-128502600D02*
X191486200Y-128583600D01*
X188793200Y-125891600D02*
X189143200Y-126241600D01*
X188558200Y-131206600D02*
X188773200Y-131422600D01*
X184762200Y-124755600D02*
X195882200Y-124755600D01*
X184762200Y-135035600D02*
X195882200Y-135035600D01*
X195882200Y-135035600D02*
X195882200Y-124755600D01*
X184762200Y-135035600D02*
X184762200Y-124755600D01*
X186622200Y-135035600D02*
X186622200Y-124755600D01*
X192822200Y-135035600D02*
X192822200Y-124755600D01*
X195322200Y-135035600D02*
X195322200Y-124755600D01*
X191952200Y-127355600D02*
G75*
G03X191952200Y-127355600I-1930000J0D01*
G01*
X191952536Y-132402331D02*
G75*
G02X191858200Y-133032600I-1930336J-33269D01*
G01*
X191210375Y-133957245D02*
G75*
G02X188833200Y-133956600I-1188175J1521645D01*
G01*
X188807591Y-133935917D02*
G75*
G02X188807200Y-130935600I1214609J1500317D01*
G01*
X188834025Y-130913955D02*
G75*
G02X191211200Y-130914600I1188175J-1521645D01*
G01*
X191857739Y-131839197D02*
G75*
G02X191952200Y-132435600I-1835539J-596403D01*
G01*
X179488200Y-147804360D02*
X179173200Y-147804360D01*
X181913200Y-147804360D02*
X181598200Y-147804360D01*
X179488200Y-142864360D02*
X179173200Y-142864360D01*
X181913200Y-142864360D02*
X181598200Y-142864360D01*
X179173200Y-142864360D02*
X179173200Y-147804360D01*
X181913200Y-142864360D02*
X181913200Y-147804360D01*
X100016680Y-147174440D02*
X99701680Y-147174440D01*
X102441680Y-147174440D02*
X102126680Y-147174440D01*
X100016680Y-142234440D02*
X99701680Y-142234440D01*
X102441680Y-142234440D02*
X102126680Y-142234440D01*
X99701680Y-142234440D02*
X99701680Y-147174440D01*
X102441680Y-142234440D02*
X102441680Y-147174440D01*
X147321640Y-146839160D02*
X147006640Y-146839160D01*
X149746640Y-146839160D02*
X149431640Y-146839160D01*
X147321640Y-141899160D02*
X147006640Y-141899160D01*
X149746640Y-141899160D02*
X149431640Y-141899160D01*
X147006640Y-141899160D02*
X147006640Y-146839160D01*
X149746640Y-141899160D02*
X149746640Y-146839160D01*
X190585680Y-121574240D02*
X193675680Y-121574240D01*
X194630680Y-119014240D02*
G75*
G03X194630680Y-119014240I-2500000J0D01*
G01*
X192130218Y-116024240D02*
G75*
G02X193675510Y-121574240I462J-2990000D01*
G01*
X192131142Y-116024240D02*
G75*
G03X190585850Y-121574240I-462J-2990000D01*
G01*
X176484280Y-113945800D02*
X176484280Y-113175800D01*
X176484280Y-105865800D02*
X176484280Y-106635800D01*
X177854280Y-113175800D02*
X177854280Y-106635800D01*
X175114280Y-113175800D02*
X177854280Y-113175800D01*
X175114280Y-106635800D02*
X175114280Y-113175800D01*
X177854280Y-106635800D02*
X175114280Y-106635800D01*
X156264120Y-31838000D02*
X156264120Y-31523000D01*
X156264120Y-34263000D02*
X156264120Y-33948000D01*
X161204120Y-31838000D02*
X161204120Y-31523000D01*
X161204120Y-34263000D02*
X161204120Y-33948000D01*
X161204120Y-31523000D02*
X156264120Y-31523000D01*
X161204120Y-34263000D02*
X156264120Y-34263000D01*
X155936320Y-35871520D02*
X155936320Y-35556520D01*
X155936320Y-38296520D02*
X155936320Y-37981520D01*
X161176320Y-35871520D02*
X161176320Y-35556520D01*
X161176320Y-38296520D02*
X161176320Y-37981520D01*
X161176320Y-35556520D02*
X155936320Y-35556520D01*
X161176320Y-38296520D02*
X155936320Y-38296520D01*
X176279680Y-120705880D02*
X177049680Y-120705880D01*
X184359680Y-120705880D02*
X183589680Y-120705880D01*
X177049680Y-122075880D02*
X183589680Y-122075880D01*
X177049680Y-119335880D02*
X177049680Y-122075880D01*
X183589680Y-119335880D02*
X177049680Y-119335880D01*
X183589680Y-122075880D02*
X183589680Y-119335880D01*
D12*
X68863540Y-143102026D02*
X68863540Y-143673455D01*
X68863540Y-143387740D02*
X67863540Y-143387740D01*
X68006398Y-143482979D01*
X68101636Y-143578217D01*
X68149255Y-143673455D01*
X67863540Y-142482979D02*
X67863540Y-142387740D01*
X67911160Y-142292502D01*
X67958779Y-142244883D01*
X68054017Y-142197264D01*
X68244493Y-142149645D01*
X68482588Y-142149645D01*
X68673064Y-142197264D01*
X68768302Y-142244883D01*
X68815921Y-142292502D01*
X68863540Y-142387740D01*
X68863540Y-142482979D01*
X68815921Y-142578217D01*
X68768302Y-142625836D01*
X68673064Y-142673455D01*
X68482588Y-142721074D01*
X68244493Y-142721074D01*
X68054017Y-142673455D01*
X67958779Y-142625836D01*
X67911160Y-142578217D01*
X67863540Y-142482979D01*
X67863540Y-141530598D02*
X67863540Y-141435360D01*
X67911160Y-141340121D01*
X67958779Y-141292502D01*
X68054017Y-141244883D01*
X68244493Y-141197264D01*
X68482588Y-141197264D01*
X68673064Y-141244883D01*
X68768302Y-141292502D01*
X68815921Y-141340121D01*
X68863540Y-141435360D01*
X68863540Y-141530598D01*
X68815921Y-141625836D01*
X68768302Y-141673455D01*
X68673064Y-141721074D01*
X68482588Y-141768693D01*
X68244493Y-141768693D01*
X68054017Y-141721074D01*
X67958779Y-141673455D01*
X67911160Y-141625836D01*
X67863540Y-141530598D01*
X64597540Y-141088026D02*
X64597540Y-141659455D01*
X64597540Y-141373740D02*
X63597540Y-141373740D01*
X63740398Y-141468979D01*
X63835636Y-141564217D01*
X63883255Y-141659455D01*
X63597540Y-140468979D02*
X63597540Y-140373740D01*
X63645160Y-140278502D01*
X63692779Y-140230883D01*
X63788017Y-140183264D01*
X63978493Y-140135645D01*
X64216588Y-140135645D01*
X64407064Y-140183264D01*
X64502302Y-140230883D01*
X64549921Y-140278502D01*
X64597540Y-140373740D01*
X64597540Y-140468979D01*
X64549921Y-140564217D01*
X64502302Y-140611836D01*
X64407064Y-140659455D01*
X64216588Y-140707074D01*
X63978493Y-140707074D01*
X63788017Y-140659455D01*
X63692779Y-140611836D01*
X63645160Y-140564217D01*
X63597540Y-140468979D01*
X63597540Y-139516598D02*
X63597540Y-139421360D01*
X63645160Y-139326121D01*
X63692779Y-139278502D01*
X63788017Y-139230883D01*
X63978493Y-139183264D01*
X64216588Y-139183264D01*
X64407064Y-139230883D01*
X64502302Y-139278502D01*
X64549921Y-139326121D01*
X64597540Y-139421360D01*
X64597540Y-139516598D01*
X64549921Y-139611836D01*
X64502302Y-139659455D01*
X64407064Y-139707074D01*
X64216588Y-139754693D01*
X63978493Y-139754693D01*
X63788017Y-139707074D01*
X63692779Y-139659455D01*
X63645160Y-139611836D01*
X63597540Y-139516598D01*
X65105540Y-143102026D02*
X65105540Y-143673455D01*
X65105540Y-143387740D02*
X64105540Y-143387740D01*
X64248398Y-143482979D01*
X64343636Y-143578217D01*
X64391255Y-143673455D01*
X64105540Y-142482979D02*
X64105540Y-142387740D01*
X64153160Y-142292502D01*
X64200779Y-142244883D01*
X64296017Y-142197264D01*
X64486493Y-142149645D01*
X64724588Y-142149645D01*
X64915064Y-142197264D01*
X65010302Y-142244883D01*
X65057921Y-142292502D01*
X65105540Y-142387740D01*
X65105540Y-142482979D01*
X65057921Y-142578217D01*
X65010302Y-142625836D01*
X64915064Y-142673455D01*
X64724588Y-142721074D01*
X64486493Y-142721074D01*
X64296017Y-142673455D01*
X64200779Y-142625836D01*
X64153160Y-142578217D01*
X64105540Y-142482979D01*
X64105540Y-141530598D02*
X64105540Y-141435360D01*
X64153160Y-141340121D01*
X64200779Y-141292502D01*
X64296017Y-141244883D01*
X64486493Y-141197264D01*
X64724588Y-141197264D01*
X64915064Y-141244883D01*
X65010302Y-141292502D01*
X65057921Y-141340121D01*
X65105540Y-141435360D01*
X65105540Y-141530598D01*
X65057921Y-141625836D01*
X65010302Y-141673455D01*
X64915064Y-141721074D01*
X64724588Y-141768693D01*
X64486493Y-141768693D01*
X64296017Y-141721074D01*
X64200779Y-141673455D01*
X64153160Y-141625836D01*
X64105540Y-141530598D01*
M02*
