G04 #@! TF.GenerationSoftware,KiCad,Pcbnew,(5.1.5)-3*
G04 #@! TF.CreationDate,2022-01-18T15:26:47+01:00*
G04 #@! TF.ProjectId,drop pcb proto 12 external controller,64726f70-2070-4636-9220-70726f746f20,rev?*
G04 #@! TF.SameCoordinates,Original*
G04 #@! TF.FileFunction,Legend,Bot*
G04 #@! TF.FilePolarity,Positive*
%FSLAX46Y46*%
G04 Gerber Fmt 4.6, Leading zero omitted, Abs format (unit mm)*
G04 Created by KiCad (PCBNEW (5.1.5)-3) date 2022-01-18 15:26:47*
%MOMM*%
%LPD*%
G04 APERTURE LIST*
%ADD10C,0.150000*%
%ADD11C,0.100000*%
%ADD12C,0.120000*%
G04 APERTURE END LIST*
D10*
X153258929Y-47509363D02*
X153659623Y-47438652D01*
X153541772Y-47792206D02*
X154036746Y-47297231D01*
X153848184Y-47108669D01*
X153777474Y-47085099D01*
X153730333Y-47085099D01*
X153659623Y-47108669D01*
X153588912Y-47179380D01*
X153565342Y-47250091D01*
X153565342Y-47297231D01*
X153588912Y-47367942D01*
X153777474Y-47556504D01*
X153235359Y-47108669D02*
X152858235Y-46731546D01*
X153954250Y-49293876D02*
X154024961Y-49317446D01*
X154095672Y-49388157D01*
X154142812Y-49482438D01*
X154142812Y-49576718D01*
X154119242Y-49647429D01*
X154048531Y-49765280D01*
X153977821Y-49835991D01*
X153859970Y-49906702D01*
X153789259Y-49930272D01*
X153694978Y-49930272D01*
X153600697Y-49883131D01*
X153553557Y-49835991D01*
X153506416Y-49741710D01*
X153506416Y-49694570D01*
X153671408Y-49529578D01*
X153765689Y-49623859D01*
X153247144Y-49529578D02*
X153742118Y-49034603D01*
X152964301Y-49246735D01*
X153459276Y-48751761D01*
X152728599Y-49011033D02*
X153223573Y-48516058D01*
X153105722Y-48398207D01*
X153011441Y-48351067D01*
X152917161Y-48351067D01*
X152846450Y-48374637D01*
X152728599Y-48445348D01*
X152657888Y-48516058D01*
X152587177Y-48633909D01*
X152563607Y-48704620D01*
X152563607Y-48798901D01*
X152610748Y-48893182D01*
X152728599Y-49011033D01*
X154048531Y-51373016D02*
X153765689Y-51090173D01*
X153412135Y-51726570D02*
X153907110Y-51231595D01*
X153294284Y-51231595D02*
X152917161Y-50854471D01*
X152917161Y-51231595D02*
X153294284Y-50854471D01*
X160398531Y-51627016D02*
X160115689Y-51344173D01*
X159762135Y-51980570D02*
X160257110Y-51485595D01*
X159644284Y-51485595D02*
X159267161Y-51108471D01*
X159773920Y-49960355D02*
X160009623Y-50196057D01*
X160504597Y-49701082D01*
X159868201Y-49536091D02*
X159703210Y-49371099D01*
X159373227Y-49559661D02*
X159608929Y-49795363D01*
X160103904Y-49300388D01*
X159868201Y-49064686D01*
X159161095Y-49347529D02*
X159656069Y-48852554D01*
X159538218Y-48734703D01*
X159443937Y-48687562D01*
X159349656Y-48687562D01*
X159278946Y-48711133D01*
X159161095Y-48781843D01*
X159090384Y-48852554D01*
X159019673Y-48970405D01*
X158996103Y-49041116D01*
X158996103Y-49135397D01*
X159043243Y-49229678D01*
X159161095Y-49347529D01*
X159608929Y-47509363D02*
X160009623Y-47438652D01*
X159891772Y-47792206D02*
X160386746Y-47297231D01*
X160198184Y-47108669D01*
X160127474Y-47085099D01*
X160080333Y-47085099D01*
X160009623Y-47108669D01*
X159938912Y-47179380D01*
X159915342Y-47250091D01*
X159915342Y-47297231D01*
X159938912Y-47367942D01*
X160127474Y-47556504D01*
X159585359Y-47108669D02*
X159208235Y-46731546D01*
X159208235Y-47108669D02*
X159585359Y-46731546D01*
X102469546Y-67541000D02*
G75*
G03X102469546Y-67541000I-898026J0D01*
G01*
X121256520Y-61191000D02*
X121256520Y-73891000D01*
X108556520Y-61191000D02*
X121256520Y-61191000D01*
X108556520Y-73891000D02*
X108556520Y-61191000D01*
X121256520Y-73891000D02*
X108556520Y-73891000D01*
X130886520Y-61189400D02*
X130886520Y-61439400D01*
X126886520Y-61189400D02*
X130886520Y-61189400D01*
X126886520Y-67439400D02*
X126886520Y-61189400D01*
X130886520Y-67439400D02*
X126886520Y-67439400D01*
X130886520Y-61439400D02*
X130886520Y-67439400D01*
X135277320Y-70840200D02*
X135277320Y-73380200D01*
X137817320Y-70840200D02*
X135277320Y-70840200D01*
X137817320Y-73380200D02*
X137817320Y-70840200D01*
X125117320Y-73380200D02*
X137817320Y-73380200D01*
X125117320Y-70840200D02*
X125117320Y-73380200D01*
X137817320Y-70840200D02*
X125117320Y-70840200D01*
X103476520Y-66271000D02*
X99666520Y-66271000D01*
X103476520Y-68811000D02*
X103476520Y-66271000D01*
X99666520Y-68811000D02*
X103476520Y-68811000D01*
X99666520Y-66271000D02*
X99666520Y-68811000D01*
X84426520Y-72621000D02*
X83156520Y-72621000D01*
X84426520Y-62461000D02*
X84426520Y-72621000D01*
X83156520Y-62461000D02*
X84426520Y-62461000D01*
X95856520Y-73891000D02*
X83156520Y-73891000D01*
X95856520Y-61191000D02*
X95856520Y-73891000D01*
X83156520Y-61191000D02*
X95856520Y-61191000D01*
X144116520Y-71351000D02*
X145386520Y-71351000D01*
X145386520Y-71351000D02*
X145386520Y-63731000D01*
X145386520Y-63731000D02*
X144116520Y-63731000D01*
X139036520Y-71351000D02*
X139036520Y-63731000D01*
X139036520Y-63731000D02*
X144116520Y-63731000D01*
X139036520Y-71351000D02*
X144116520Y-71351000D01*
X144116520Y-58651000D02*
X83156520Y-58651000D01*
X83156520Y-58651000D02*
X83156520Y-76431000D01*
X83156520Y-76431000D02*
X144116520Y-76431000D01*
X144116520Y-76431000D02*
X144116520Y-58651000D01*
D11*
G36*
X111201520Y-67996000D02*
G01*
X111455520Y-68250000D01*
X111709520Y-67869000D01*
X111455520Y-67615000D01*
X111201520Y-67996000D01*
G37*
X111201520Y-67996000D02*
X111455520Y-68250000D01*
X111709520Y-67869000D01*
X111455520Y-67615000D01*
X111201520Y-67996000D01*
G36*
X111582520Y-67488000D02*
G01*
X111836520Y-67742000D01*
X112090520Y-67361000D01*
X111836520Y-67107000D01*
X111582520Y-67488000D01*
G37*
X111582520Y-67488000D02*
X111836520Y-67742000D01*
X112090520Y-67361000D01*
X111836520Y-67107000D01*
X111582520Y-67488000D01*
G36*
X111963520Y-66980000D02*
G01*
X112217520Y-67234000D01*
X112471520Y-66853000D01*
X112217520Y-66599000D01*
X111963520Y-66980000D01*
G37*
X111963520Y-66980000D02*
X112217520Y-67234000D01*
X112471520Y-66853000D01*
X112217520Y-66599000D01*
X111963520Y-66980000D01*
G36*
X111963520Y-67869000D02*
G01*
X112217520Y-68123000D01*
X112471520Y-67742000D01*
X112217520Y-67488000D01*
X111963520Y-67869000D01*
G37*
X111963520Y-67869000D02*
X112217520Y-68123000D01*
X112471520Y-67742000D01*
X112217520Y-67488000D01*
X111963520Y-67869000D01*
G36*
X112344520Y-67361000D02*
G01*
X112598520Y-67615000D01*
X112852520Y-67234000D01*
X112598520Y-66980000D01*
X112344520Y-67361000D01*
G37*
X112344520Y-67361000D02*
X112598520Y-67615000D01*
X112852520Y-67234000D01*
X112598520Y-66980000D01*
X112344520Y-67361000D01*
G36*
X112725520Y-66853000D02*
G01*
X112979520Y-67107000D01*
X113233520Y-66726000D01*
X112979520Y-66472000D01*
X112725520Y-66853000D01*
G37*
X112725520Y-66853000D02*
X112979520Y-67107000D01*
X113233520Y-66726000D01*
X112979520Y-66472000D01*
X112725520Y-66853000D01*
G36*
X110820520Y-67615000D02*
G01*
X111074520Y-67869000D01*
X111328520Y-67488000D01*
X111074520Y-67234000D01*
X110820520Y-67615000D01*
G37*
X110820520Y-67615000D02*
X111074520Y-67869000D01*
X111328520Y-67488000D01*
X111074520Y-67234000D01*
X110820520Y-67615000D01*
G36*
X110439520Y-67234000D02*
G01*
X110693520Y-67488000D01*
X110947520Y-67107000D01*
X110693520Y-66853000D01*
X110439520Y-67234000D01*
G37*
X110439520Y-67234000D02*
X110693520Y-67488000D01*
X110947520Y-67107000D01*
X110693520Y-66853000D01*
X110439520Y-67234000D01*
D12*
X158731360Y-46326000D02*
X157671360Y-46326000D01*
X158731360Y-47386000D02*
X158731360Y-46326000D01*
X156671360Y-46326000D02*
X154611360Y-46326000D01*
X156671360Y-48386000D02*
X156671360Y-46326000D01*
X158731360Y-48386000D02*
X156671360Y-48386000D01*
X154611360Y-46326000D02*
X154611360Y-52446000D01*
X158731360Y-48386000D02*
X158731360Y-52446000D01*
X158731360Y-52446000D02*
X154611360Y-52446000D01*
X184035960Y-114999720D02*
X182535960Y-114999720D01*
X180035960Y-113749720D02*
X180035960Y-109249720D01*
X182535960Y-107999720D02*
X184035960Y-107999720D01*
X186535960Y-109249720D02*
X186535960Y-113749720D01*
D10*
X135411843Y-69482580D02*
X135411843Y-70292104D01*
X135364224Y-70387342D01*
X135316605Y-70434961D01*
X135221367Y-70482580D01*
X135030891Y-70482580D01*
X134935653Y-70434961D01*
X134888034Y-70387342D01*
X134840415Y-70292104D01*
X134840415Y-69482580D01*
X134411843Y-70434961D02*
X134268986Y-70482580D01*
X134030891Y-70482580D01*
X133935653Y-70434961D01*
X133888034Y-70387342D01*
X133840415Y-70292104D01*
X133840415Y-70196866D01*
X133888034Y-70101628D01*
X133935653Y-70054009D01*
X134030891Y-70006390D01*
X134221367Y-69958771D01*
X134316605Y-69911152D01*
X134364224Y-69863533D01*
X134411843Y-69768295D01*
X134411843Y-69673057D01*
X134364224Y-69577819D01*
X134316605Y-69530200D01*
X134221367Y-69482580D01*
X133983272Y-69482580D01*
X133840415Y-69530200D01*
X133078510Y-69958771D02*
X132935653Y-70006390D01*
X132888034Y-70054009D01*
X132840415Y-70149247D01*
X132840415Y-70292104D01*
X132888034Y-70387342D01*
X132935653Y-70434961D01*
X133030891Y-70482580D01*
X133411843Y-70482580D01*
X133411843Y-69482580D01*
X133078510Y-69482580D01*
X132983272Y-69530200D01*
X132935653Y-69577819D01*
X132888034Y-69673057D01*
X132888034Y-69768295D01*
X132935653Y-69863533D01*
X132983272Y-69911152D01*
X133078510Y-69958771D01*
X133411843Y-69958771D01*
X131649939Y-70482580D02*
X131649939Y-69482580D01*
X131649939Y-69958771D02*
X131078510Y-69958771D01*
X131078510Y-70482580D02*
X131078510Y-69482580D01*
X130459462Y-70482580D02*
X130554700Y-70434961D01*
X130602320Y-70387342D01*
X130649939Y-70292104D01*
X130649939Y-70006390D01*
X130602320Y-69911152D01*
X130554700Y-69863533D01*
X130459462Y-69815914D01*
X130316605Y-69815914D01*
X130221367Y-69863533D01*
X130173748Y-69911152D01*
X130126129Y-70006390D01*
X130126129Y-70292104D01*
X130173748Y-70387342D01*
X130221367Y-70434961D01*
X130316605Y-70482580D01*
X130459462Y-70482580D01*
X129745177Y-70434961D02*
X129649939Y-70482580D01*
X129459462Y-70482580D01*
X129364224Y-70434961D01*
X129316605Y-70339723D01*
X129316605Y-70292104D01*
X129364224Y-70196866D01*
X129459462Y-70149247D01*
X129602320Y-70149247D01*
X129697558Y-70101628D01*
X129745177Y-70006390D01*
X129745177Y-69958771D01*
X129697558Y-69863533D01*
X129602320Y-69815914D01*
X129459462Y-69815914D01*
X129364224Y-69863533D01*
X129030891Y-69815914D02*
X128649939Y-69815914D01*
X128888034Y-69482580D02*
X128888034Y-70339723D01*
X128840415Y-70434961D01*
X128745177Y-70482580D01*
X128649939Y-70482580D01*
X125630091Y-61407257D02*
X125630091Y-61740590D01*
X126153900Y-61883447D02*
X126153900Y-61407257D01*
X125153900Y-61407257D01*
X125153900Y-61883447D01*
X125487234Y-62169161D02*
X125487234Y-62550114D01*
X125153900Y-62312019D02*
X126011043Y-62312019D01*
X126106281Y-62359638D01*
X126153900Y-62454876D01*
X126153900Y-62550114D01*
X126153900Y-62883447D02*
X125153900Y-62883447D01*
X126153900Y-63312019D02*
X125630091Y-63312019D01*
X125534853Y-63264400D01*
X125487234Y-63169161D01*
X125487234Y-63026304D01*
X125534853Y-62931066D01*
X125582472Y-62883447D01*
X126106281Y-64169161D02*
X126153900Y-64073923D01*
X126153900Y-63883447D01*
X126106281Y-63788209D01*
X126011043Y-63740590D01*
X125630091Y-63740590D01*
X125534853Y-63788209D01*
X125487234Y-63883447D01*
X125487234Y-64073923D01*
X125534853Y-64169161D01*
X125630091Y-64216780D01*
X125725329Y-64216780D01*
X125820567Y-63740590D01*
X126153900Y-64645352D02*
X125487234Y-64645352D01*
X125677710Y-64645352D02*
X125582472Y-64692971D01*
X125534853Y-64740590D01*
X125487234Y-64835828D01*
X125487234Y-64931066D01*
X125487234Y-65264400D02*
X126153900Y-65264400D01*
X125582472Y-65264400D02*
X125534853Y-65312019D01*
X125487234Y-65407257D01*
X125487234Y-65550114D01*
X125534853Y-65645352D01*
X125630091Y-65692971D01*
X126153900Y-65692971D01*
X126106281Y-66550114D02*
X126153900Y-66454876D01*
X126153900Y-66264400D01*
X126106281Y-66169161D01*
X126011043Y-66121542D01*
X125630091Y-66121542D01*
X125534853Y-66169161D01*
X125487234Y-66264400D01*
X125487234Y-66454876D01*
X125534853Y-66550114D01*
X125630091Y-66597733D01*
X125725329Y-66597733D01*
X125820567Y-66121542D01*
X125487234Y-66883447D02*
X125487234Y-67264400D01*
X125153900Y-67026304D02*
X126011043Y-67026304D01*
X126106281Y-67073923D01*
X126153900Y-67169161D01*
X126153900Y-67264400D01*
X139758900Y-66279095D02*
X140568424Y-66279095D01*
X140663662Y-66326714D01*
X140711281Y-66374333D01*
X140758900Y-66469571D01*
X140758900Y-66660047D01*
X140711281Y-66755285D01*
X140663662Y-66802904D01*
X140568424Y-66850523D01*
X139758900Y-66850523D01*
X140711281Y-67279095D02*
X140758900Y-67421952D01*
X140758900Y-67660047D01*
X140711281Y-67755285D01*
X140663662Y-67802904D01*
X140568424Y-67850523D01*
X140473186Y-67850523D01*
X140377948Y-67802904D01*
X140330329Y-67755285D01*
X140282710Y-67660047D01*
X140235091Y-67469571D01*
X140187472Y-67374333D01*
X140139853Y-67326714D01*
X140044615Y-67279095D01*
X139949377Y-67279095D01*
X139854139Y-67326714D01*
X139806520Y-67374333D01*
X139758900Y-67469571D01*
X139758900Y-67707666D01*
X139806520Y-67850523D01*
X140235091Y-68612428D02*
X140282710Y-68755285D01*
X140330329Y-68802904D01*
X140425567Y-68850523D01*
X140568424Y-68850523D01*
X140663662Y-68802904D01*
X140711281Y-68755285D01*
X140758900Y-68660047D01*
X140758900Y-68279095D01*
X139758900Y-68279095D01*
X139758900Y-68612428D01*
X139806520Y-68707666D01*
X139854139Y-68755285D01*
X139949377Y-68802904D01*
X140044615Y-68802904D01*
X140139853Y-68755285D01*
X140187472Y-68707666D01*
X140235091Y-68612428D01*
X140235091Y-68279095D01*
X92625567Y-67993380D02*
X92625567Y-66993380D01*
X92292234Y-67707666D01*
X91958900Y-66993380D01*
X91958900Y-67993380D01*
X91482710Y-67993380D02*
X91482710Y-67326714D01*
X91482710Y-66993380D02*
X91530329Y-67041000D01*
X91482710Y-67088619D01*
X91435091Y-67041000D01*
X91482710Y-66993380D01*
X91482710Y-67088619D01*
X90577948Y-67945761D02*
X90673186Y-67993380D01*
X90863662Y-67993380D01*
X90958900Y-67945761D01*
X91006520Y-67898142D01*
X91054139Y-67802904D01*
X91054139Y-67517190D01*
X91006520Y-67421952D01*
X90958900Y-67374333D01*
X90863662Y-67326714D01*
X90673186Y-67326714D01*
X90577948Y-67374333D01*
X90149377Y-67993380D02*
X90149377Y-67326714D01*
X90149377Y-67517190D02*
X90101758Y-67421952D01*
X90054139Y-67374333D01*
X89958900Y-67326714D01*
X89863662Y-67326714D01*
X89387472Y-67993380D02*
X89482710Y-67945761D01*
X89530329Y-67898142D01*
X89577948Y-67802904D01*
X89577948Y-67517190D01*
X89530329Y-67421952D01*
X89482710Y-67374333D01*
X89387472Y-67326714D01*
X89244615Y-67326714D01*
X89149377Y-67374333D01*
X89101758Y-67421952D01*
X89054139Y-67517190D01*
X89054139Y-67802904D01*
X89101758Y-67898142D01*
X89149377Y-67945761D01*
X89244615Y-67993380D01*
X89387472Y-67993380D01*
X87911281Y-67945761D02*
X87768424Y-67993380D01*
X87530329Y-67993380D01*
X87435091Y-67945761D01*
X87387472Y-67898142D01*
X87339853Y-67802904D01*
X87339853Y-67707666D01*
X87387472Y-67612428D01*
X87435091Y-67564809D01*
X87530329Y-67517190D01*
X87720805Y-67469571D01*
X87816043Y-67421952D01*
X87863662Y-67374333D01*
X87911281Y-67279095D01*
X87911281Y-67183857D01*
X87863662Y-67088619D01*
X87816043Y-67041000D01*
X87720805Y-66993380D01*
X87482710Y-66993380D01*
X87339853Y-67041000D01*
X86911281Y-67993380D02*
X86911281Y-66993380D01*
X86673186Y-66993380D01*
X86530329Y-67041000D01*
X86435091Y-67136238D01*
X86387472Y-67231476D01*
X86339853Y-67421952D01*
X86339853Y-67564809D01*
X86387472Y-67755285D01*
X86435091Y-67850523D01*
X86530329Y-67945761D01*
X86673186Y-67993380D01*
X86911281Y-67993380D01*
X115223186Y-64457666D02*
X114523186Y-64457666D01*
X115023186Y-64691000D01*
X114523186Y-64924333D01*
X115223186Y-64924333D01*
X115223186Y-65257666D02*
X114523186Y-65257666D01*
X115223186Y-65591000D02*
X114523186Y-65591000D01*
X115023186Y-65824333D01*
X114523186Y-66057666D01*
X115223186Y-66057666D01*
X114523186Y-66324333D02*
X115223186Y-66791000D01*
X114523186Y-66791000D02*
X115223186Y-66324333D01*
X115223186Y-67457666D02*
X114889853Y-67224333D01*
X115223186Y-67057666D02*
X114523186Y-67057666D01*
X114523186Y-67324333D01*
X114556520Y-67391000D01*
X114589853Y-67424333D01*
X114656520Y-67457666D01*
X114756520Y-67457666D01*
X114823186Y-67424333D01*
X114856520Y-67391000D01*
X114889853Y-67324333D01*
X114889853Y-67057666D01*
X114523186Y-67657666D02*
X114523186Y-68057666D01*
X115223186Y-67857666D02*
X114523186Y-67857666D01*
X115223186Y-68657666D02*
X115223186Y-68257666D01*
X115223186Y-68457666D02*
X114523186Y-68457666D01*
X114623186Y-68391000D01*
X114689853Y-68324333D01*
X114723186Y-68257666D01*
X114523186Y-69091000D02*
X114523186Y-69157666D01*
X114556520Y-69224333D01*
X114589853Y-69257666D01*
X114656520Y-69291000D01*
X114789853Y-69324333D01*
X114956520Y-69324333D01*
X115089853Y-69291000D01*
X115156520Y-69257666D01*
X115189853Y-69224333D01*
X115223186Y-69157666D01*
X115223186Y-69091000D01*
X115189853Y-69024333D01*
X115156520Y-68991000D01*
X115089853Y-68957666D01*
X114956520Y-68924333D01*
X114789853Y-68924333D01*
X114656520Y-68957666D01*
X114589853Y-68991000D01*
X114556520Y-69024333D01*
X114523186Y-69091000D01*
X114523186Y-69924333D02*
X114523186Y-69791000D01*
X114556520Y-69724333D01*
X114589853Y-69691000D01*
X114689853Y-69624333D01*
X114823186Y-69591000D01*
X115089853Y-69591000D01*
X115156520Y-69624333D01*
X115189853Y-69657666D01*
X115223186Y-69724333D01*
X115223186Y-69857666D01*
X115189853Y-69924333D01*
X115156520Y-69957666D01*
X115089853Y-69991000D01*
X114923186Y-69991000D01*
X114856520Y-69957666D01*
X114823186Y-69924333D01*
X114789853Y-69857666D01*
X114789853Y-69724333D01*
X114823186Y-69657666D01*
X114856520Y-69624333D01*
X114923186Y-69591000D01*
X114589853Y-70257666D02*
X114556520Y-70291000D01*
X114523186Y-70357666D01*
X114523186Y-70524333D01*
X114556520Y-70591000D01*
X114589853Y-70624333D01*
X114656520Y-70657666D01*
X114723186Y-70657666D01*
X114823186Y-70624333D01*
X115223186Y-70224333D01*
X115223186Y-70657666D01*
X116493186Y-65977666D02*
X115793186Y-65977666D01*
X115793186Y-66144333D01*
X115826520Y-66244333D01*
X115893186Y-66311000D01*
X115959853Y-66344333D01*
X116093186Y-66377666D01*
X116193186Y-66377666D01*
X116326520Y-66344333D01*
X116393186Y-66311000D01*
X116459853Y-66244333D01*
X116493186Y-66144333D01*
X116493186Y-65977666D01*
X115793186Y-66577666D02*
X116493186Y-66811000D01*
X115793186Y-67044333D01*
X115793186Y-67477666D02*
X116293186Y-67477666D01*
X116393186Y-67444333D01*
X116459853Y-67377666D01*
X116493186Y-67277666D01*
X116493186Y-67211000D01*
X115793186Y-68111000D02*
X115793186Y-67977666D01*
X115826520Y-67911000D01*
X115859853Y-67877666D01*
X115959853Y-67811000D01*
X116093186Y-67777666D01*
X116359853Y-67777666D01*
X116426520Y-67811000D01*
X116459853Y-67844333D01*
X116493186Y-67911000D01*
X116493186Y-68044333D01*
X116459853Y-68111000D01*
X116426520Y-68144333D01*
X116359853Y-68177666D01*
X116193186Y-68177666D01*
X116126520Y-68144333D01*
X116093186Y-68111000D01*
X116059853Y-68044333D01*
X116059853Y-67911000D01*
X116093186Y-67844333D01*
X116126520Y-67811000D01*
X116193186Y-67777666D01*
X116293186Y-68444333D02*
X116293186Y-68777666D01*
X116493186Y-68377666D02*
X115793186Y-68611000D01*
X116493186Y-68844333D01*
M02*
