G04 #@! TF.GenerationSoftware,KiCad,Pcbnew,(5.1.5)-3*
G04 #@! TF.CreationDate,2022-01-18T15:26:47+01:00*
G04 #@! TF.ProjectId,drop pcb proto 12 external controller,64726f70-2070-4636-9220-70726f746f20,rev?*
G04 #@! TF.SameCoordinates,Original*
G04 #@! TF.FileFunction,Other,Fab,Bot*
%FSLAX46Y46*%
G04 Gerber Fmt 4.6, Leading zero omitted, Abs format (unit mm)*
G04 Created by KiCad (PCBNEW (5.1.5)-3) date 2022-01-18 15:26:47*
%MOMM*%
%LPD*%
G04 APERTURE LIST*
%ADD10C,0.100000*%
%ADD11C,0.150000*%
G04 APERTURE END LIST*
D10*
X158671360Y-47386000D02*
X157671360Y-46386000D01*
X158671360Y-52386000D02*
X158671360Y-47386000D01*
X154671360Y-52386000D02*
X158671360Y-52386000D01*
X154671360Y-46386000D02*
X154671360Y-52386000D01*
X157671360Y-46386000D02*
X154671360Y-46386000D01*
X185301524Y-111499720D02*
G75*
G03X185301524Y-111499720I-2015564J0D01*
G01*
X180285960Y-108499720D02*
X180285960Y-111499720D01*
X186285960Y-108499720D02*
X180285960Y-108499720D01*
X186285960Y-114499720D02*
X186285960Y-108499720D01*
X180285960Y-114499720D02*
X186285960Y-114499720D01*
X180285960Y-111499720D02*
X180285960Y-114499720D01*
D11*
X121688900Y-63969571D02*
X121688900Y-64541000D01*
X122688900Y-64255285D02*
X121688900Y-64255285D01*
X122641281Y-65255285D02*
X122688900Y-65160047D01*
X122688900Y-64969571D01*
X122641281Y-64874333D01*
X122546043Y-64826714D01*
X122165091Y-64826714D01*
X122069853Y-64874333D01*
X122022234Y-64969571D01*
X122022234Y-65160047D01*
X122069853Y-65255285D01*
X122165091Y-65302904D01*
X122260329Y-65302904D01*
X122355567Y-64826714D01*
X122641281Y-66112428D02*
X122688900Y-66017190D01*
X122688900Y-65826714D01*
X122641281Y-65731476D01*
X122546043Y-65683857D01*
X122165091Y-65683857D01*
X122069853Y-65731476D01*
X122022234Y-65826714D01*
X122022234Y-66017190D01*
X122069853Y-66112428D01*
X122165091Y-66160047D01*
X122260329Y-66160047D01*
X122355567Y-65683857D01*
X122022234Y-66588619D02*
X122688900Y-66588619D01*
X122117472Y-66588619D02*
X122069853Y-66636238D01*
X122022234Y-66731476D01*
X122022234Y-66874333D01*
X122069853Y-66969571D01*
X122165091Y-67017190D01*
X122688900Y-67017190D01*
X122641281Y-67445761D02*
X122688900Y-67541000D01*
X122688900Y-67731476D01*
X122641281Y-67826714D01*
X122546043Y-67874333D01*
X122498424Y-67874333D01*
X122403186Y-67826714D01*
X122355567Y-67731476D01*
X122355567Y-67588619D01*
X122307948Y-67493380D01*
X122212710Y-67445761D01*
X122165091Y-67445761D01*
X122069853Y-67493380D01*
X122022234Y-67588619D01*
X122022234Y-67731476D01*
X122069853Y-67826714D01*
X122022234Y-68207666D02*
X122688900Y-68445761D01*
X122022234Y-68683857D02*
X122688900Y-68445761D01*
X122926996Y-68350523D01*
X122974615Y-68302904D01*
X123022234Y-68207666D01*
X122022234Y-69493380D02*
X122688900Y-69493380D01*
X121641281Y-69255285D02*
X122355567Y-69017190D01*
X122355567Y-69636238D01*
X122593662Y-70017190D02*
X122641281Y-70064809D01*
X122688900Y-70017190D01*
X122641281Y-69969571D01*
X122593662Y-70017190D01*
X122688900Y-70017190D01*
X122688900Y-71017190D02*
X122688900Y-70445761D01*
X122688900Y-70731476D02*
X121688900Y-70731476D01*
X121831758Y-70636238D01*
X121926996Y-70541000D01*
X121974615Y-70445761D01*
X164314217Y-53803142D02*
X164361836Y-53850761D01*
X164504693Y-53898380D01*
X164599931Y-53898380D01*
X164742788Y-53850761D01*
X164838026Y-53755523D01*
X164885645Y-53660285D01*
X164933264Y-53469809D01*
X164933264Y-53326952D01*
X164885645Y-53136476D01*
X164838026Y-53041238D01*
X164742788Y-52946000D01*
X164599931Y-52898380D01*
X164504693Y-52898380D01*
X164361836Y-52946000D01*
X164314217Y-52993619D01*
X163742788Y-53898380D02*
X163838026Y-53850761D01*
X163885645Y-53803142D01*
X163933264Y-53707904D01*
X163933264Y-53422190D01*
X163885645Y-53326952D01*
X163838026Y-53279333D01*
X163742788Y-53231714D01*
X163599931Y-53231714D01*
X163504693Y-53279333D01*
X163457074Y-53326952D01*
X163409455Y-53422190D01*
X163409455Y-53707904D01*
X163457074Y-53803142D01*
X163504693Y-53850761D01*
X163599931Y-53898380D01*
X163742788Y-53898380D01*
X162980883Y-53231714D02*
X162980883Y-53898380D01*
X162980883Y-53326952D02*
X162933264Y-53279333D01*
X162838026Y-53231714D01*
X162695169Y-53231714D01*
X162599931Y-53279333D01*
X162552312Y-53374571D01*
X162552312Y-53898380D01*
X162076121Y-53231714D02*
X162076121Y-53898380D01*
X162076121Y-53326952D02*
X162028502Y-53279333D01*
X161933264Y-53231714D01*
X161790407Y-53231714D01*
X161695169Y-53279333D01*
X161647550Y-53374571D01*
X161647550Y-53898380D01*
X161409455Y-53993619D02*
X160647550Y-53993619D01*
X160218979Y-52898380D02*
X160123740Y-52898380D01*
X160028502Y-52946000D01*
X159980883Y-52993619D01*
X159933264Y-53088857D01*
X159885645Y-53279333D01*
X159885645Y-53517428D01*
X159933264Y-53707904D01*
X159980883Y-53803142D01*
X160028502Y-53850761D01*
X160123740Y-53898380D01*
X160218979Y-53898380D01*
X160314217Y-53850761D01*
X160361836Y-53803142D01*
X160409455Y-53707904D01*
X160457074Y-53517428D01*
X160457074Y-53279333D01*
X160409455Y-53088857D01*
X160361836Y-52993619D01*
X160314217Y-52946000D01*
X160218979Y-52898380D01*
X159504693Y-52993619D02*
X159457074Y-52946000D01*
X159361836Y-52898380D01*
X159123740Y-52898380D01*
X159028502Y-52946000D01*
X158980883Y-52993619D01*
X158933264Y-53088857D01*
X158933264Y-53184095D01*
X158980883Y-53326952D01*
X159552312Y-53898380D01*
X158933264Y-53898380D01*
X158599931Y-53898380D02*
X158076121Y-53231714D01*
X158599931Y-53231714D02*
X158076121Y-53898380D01*
X157504693Y-52898380D02*
X157409455Y-52898380D01*
X157314217Y-52946000D01*
X157266598Y-52993619D01*
X157218979Y-53088857D01*
X157171360Y-53279333D01*
X157171360Y-53517428D01*
X157218979Y-53707904D01*
X157266598Y-53803142D01*
X157314217Y-53850761D01*
X157409455Y-53898380D01*
X157504693Y-53898380D01*
X157599931Y-53850761D01*
X157647550Y-53803142D01*
X157695169Y-53707904D01*
X157742788Y-53517428D01*
X157742788Y-53279333D01*
X157695169Y-53088857D01*
X157647550Y-52993619D01*
X157599931Y-52946000D01*
X157504693Y-52898380D01*
X156838026Y-52898380D02*
X156218979Y-52898380D01*
X156552312Y-53279333D01*
X156409455Y-53279333D01*
X156314217Y-53326952D01*
X156266598Y-53374571D01*
X156218979Y-53469809D01*
X156218979Y-53707904D01*
X156266598Y-53803142D01*
X156314217Y-53850761D01*
X156409455Y-53898380D01*
X156695169Y-53898380D01*
X156790407Y-53850761D01*
X156838026Y-53803142D01*
X156028502Y-53993619D02*
X155266598Y-53993619D01*
X154838026Y-52898380D02*
X154647550Y-52898380D01*
X154552312Y-52946000D01*
X154457074Y-53041238D01*
X154409455Y-53231714D01*
X154409455Y-53565047D01*
X154457074Y-53755523D01*
X154552312Y-53850761D01*
X154647550Y-53898380D01*
X154838026Y-53898380D01*
X154933264Y-53850761D01*
X155028502Y-53755523D01*
X155076121Y-53565047D01*
X155076121Y-53231714D01*
X155028502Y-53041238D01*
X154933264Y-52946000D01*
X154838026Y-52898380D01*
X153552312Y-53898380D02*
X153552312Y-52898380D01*
X153552312Y-53850761D02*
X153647550Y-53898380D01*
X153838026Y-53898380D01*
X153933264Y-53850761D01*
X153980883Y-53803142D01*
X154028502Y-53707904D01*
X154028502Y-53422190D01*
X153980883Y-53326952D01*
X153933264Y-53279333D01*
X153838026Y-53231714D01*
X153647550Y-53231714D01*
X153552312Y-53279333D01*
X152647550Y-53898380D02*
X152647550Y-52898380D01*
X152647550Y-53850761D02*
X152742788Y-53898380D01*
X152933264Y-53898380D01*
X153028502Y-53850761D01*
X153076121Y-53803142D01*
X153123740Y-53707904D01*
X153123740Y-53422190D01*
X153076121Y-53326952D01*
X153028502Y-53279333D01*
X152933264Y-53231714D01*
X152742788Y-53231714D01*
X152647550Y-53279333D01*
X152409455Y-53993619D02*
X151647550Y-53993619D01*
X151409455Y-53374571D02*
X151076121Y-53374571D01*
X150933264Y-53898380D02*
X151409455Y-53898380D01*
X151409455Y-52898380D01*
X150933264Y-52898380D01*
X150599931Y-53231714D02*
X150361836Y-53898380D01*
X150123740Y-53231714D01*
X149361836Y-53850761D02*
X149457074Y-53898380D01*
X149647550Y-53898380D01*
X149742788Y-53850761D01*
X149790407Y-53755523D01*
X149790407Y-53374571D01*
X149742788Y-53279333D01*
X149647550Y-53231714D01*
X149457074Y-53231714D01*
X149361836Y-53279333D01*
X149314217Y-53374571D01*
X149314217Y-53469809D01*
X149790407Y-53565047D01*
X148885645Y-53231714D02*
X148885645Y-53898380D01*
X148885645Y-53326952D02*
X148838026Y-53279333D01*
X148742788Y-53231714D01*
X148599931Y-53231714D01*
X148504693Y-53279333D01*
X148457074Y-53374571D01*
X148457074Y-53898380D01*
X192640721Y-112102100D02*
X192688340Y-112244958D01*
X192688340Y-112483053D01*
X192640721Y-112578291D01*
X192593102Y-112625910D01*
X192497864Y-112673529D01*
X192402626Y-112673529D01*
X192307388Y-112625910D01*
X192259769Y-112578291D01*
X192212150Y-112483053D01*
X192164531Y-112292577D01*
X192116912Y-112197339D01*
X192069293Y-112149720D01*
X191974055Y-112102100D01*
X191878817Y-112102100D01*
X191783579Y-112149720D01*
X191735960Y-112197339D01*
X191688340Y-112292577D01*
X191688340Y-112530672D01*
X191735960Y-112673529D01*
X191688340Y-113006862D02*
X192688340Y-113244958D01*
X191974055Y-113435434D01*
X192688340Y-113625910D01*
X191688340Y-113864005D01*
X192783579Y-114006862D02*
X192783579Y-114768767D01*
X192688340Y-115006862D02*
X191688340Y-115006862D01*
X191688340Y-115387815D01*
X191735960Y-115483053D01*
X191783579Y-115530672D01*
X191878817Y-115578291D01*
X192021674Y-115578291D01*
X192116912Y-115530672D01*
X192164531Y-115483053D01*
X192212150Y-115387815D01*
X192212150Y-115006862D01*
X192021674Y-116435434D02*
X192688340Y-116435434D01*
X192021674Y-116006862D02*
X192545483Y-116006862D01*
X192640721Y-116054481D01*
X192688340Y-116149720D01*
X192688340Y-116292577D01*
X192640721Y-116387815D01*
X192593102Y-116435434D01*
X192640721Y-116864005D02*
X192688340Y-116959243D01*
X192688340Y-117149720D01*
X192640721Y-117244958D01*
X192545483Y-117292577D01*
X192497864Y-117292577D01*
X192402626Y-117244958D01*
X192355007Y-117149720D01*
X192355007Y-117006862D01*
X192307388Y-116911624D01*
X192212150Y-116864005D01*
X192164531Y-116864005D01*
X192069293Y-116911624D01*
X192021674Y-117006862D01*
X192021674Y-117149720D01*
X192069293Y-117244958D01*
X192688340Y-117721148D02*
X191688340Y-117721148D01*
X192688340Y-118149720D02*
X192164531Y-118149720D01*
X192069293Y-118102100D01*
X192021674Y-118006862D01*
X192021674Y-117864005D01*
X192069293Y-117768767D01*
X192116912Y-117721148D01*
M02*
