M48
; DRILL file {KiCad (5.1.5)-3} date 18/01/2022 15:26:50
; FORMAT={-:-/ absolute / inch / decimal}
; #@! TF.CreationDate,2022-01-18T15:26:50+01:00
; #@! TF.GenerationSoftware,Kicad,Pcbnew,(5.1.5)-3
; #@! TF.FileFunction,Plated,1,2,PTH
FMAT,2
INCH
T1C0.0157
T2C0.0315
T3C0.0354
T4C0.0394
T5C0.0402
T6C0.0433
T7C0.0551
T8C0.0630
%
G90
G05
T1
X1.6487Y-0.4611
X1.6487Y-0.6973
X1.6487Y-0.8548
X1.6487Y-1.0123
X1.6487Y-1.1697
X1.6487Y-1.3272
X1.6487Y-1.4847
X1.6487Y-1.6422
X1.6487Y-1.7997
X1.6487Y-1.9571
X1.6487Y-2.1146
X1.6487Y-2.2721
X1.6487Y-2.4296
X1.6487Y-2.5871
X1.6487Y-2.7445
X1.6487Y-2.902
X1.6487Y-3.0595
X1.6487Y-3.217
X1.6487Y-3.3745
X1.6487Y-3.5319
X1.6487Y-3.6894
X1.6487Y-3.8469
X1.6487Y-4.0044
X1.6487Y-4.1619
X1.6487Y-4.3193
X1.6487Y-4.4768
X1.6487Y-4.6343
X1.6487Y-4.7918
X1.6487Y-4.9493
X1.6487Y-5.1067
X1.6487Y-5.2642
X1.6487Y-5.4217
X1.6487Y-5.5792
X1.6487Y-5.7367
X1.6487Y-6.0123
X1.6487Y-6.1697
X1.7274Y-0.776
X1.7274Y-0.9335
X1.7274Y-1.091
X1.7274Y-1.2485
X1.7274Y-1.406
X1.7274Y-1.5634
X1.7274Y-1.7209
X1.7274Y-1.8784
X1.7274Y-2.0359
X1.7274Y-2.1934
X1.7274Y-2.3508
X1.7274Y-2.5083
X1.7274Y-2.6658
X1.7274Y-2.8233
X1.7274Y-2.9808
X1.7274Y-3.1382
X1.7274Y-3.2957
X1.7274Y-3.4532
X1.7274Y-3.6107
X1.7274Y-3.7682
X1.7274Y-3.9256
X1.7274Y-4.0831
X1.7274Y-4.2406
X1.7274Y-4.3981
X1.7274Y-4.5556
X1.7274Y-4.713
X1.7274Y-4.8705
X1.7274Y-5.028
X1.7274Y-5.1855
X1.7274Y-5.343
X1.7274Y-5.5004
X1.7274Y-5.6579
X1.7274Y-6.091
X1.7668Y-5.776
X1.7668Y-6.2091
X1.8061Y-0.8548
X1.8061Y-1.0123
X1.8061Y-1.1697
X1.8061Y-1.3272
X1.8061Y-1.4847
X1.8061Y-1.6422
X1.8061Y-1.7997
X1.8061Y-1.9571
X1.8061Y-2.1146
X1.8061Y-2.2721
X1.8061Y-2.4296
X1.8061Y-2.5871
X1.8061Y-2.7445
X1.8061Y-2.902
X1.8061Y-3.0595
X1.8061Y-3.217
X1.8061Y-3.3745
X1.8061Y-3.5319
X1.8061Y-3.6894
X1.8061Y-3.8469
X1.8061Y-4.0044
X1.8061Y-4.1619
X1.8061Y-4.6343
X1.8061Y-4.7918
X1.8061Y-5.4217
X1.8061Y-5.5792
X1.8455Y-0.4611
X1.8455Y-0.7367
X1.8455Y-5.6973
X1.8455Y-6.0516
X1.8849Y-0.9335
X1.8849Y-1.091
X1.8849Y-1.2485
X1.8849Y-1.406
X1.8849Y-1.5634
X1.8849Y-1.7209
X1.8849Y-1.8784
X1.8849Y-2.0359
X1.8849Y-2.1934
X1.8849Y-2.3508
X1.8849Y-2.5083
X1.8849Y-2.6658
X1.8849Y-2.8233
X1.8849Y-2.9808
X1.8849Y-3.1382
X1.8849Y-3.2957
X1.8849Y-3.4532
X1.8849Y-3.6107
X1.8849Y-3.7682
X1.8849Y-3.9256
X1.8849Y-4.0831
X1.8849Y-4.713
X1.8849Y-4.8705
X1.8849Y-5.343
X1.8849Y-5.5004
X1.8849Y-5.8154
X1.8849Y-6.1697
X1.9243Y-0.5398
X1.9243Y-0.8154
X1.9243Y-4.5949
X1.9243Y-5.6186
X1.9243Y-5.9335
X1.9636Y-0.6579
X1.9636Y-1.0123
X1.9636Y-1.1697
X1.9636Y-1.3272
X1.9636Y-1.4847
X1.9636Y-1.6422
X1.9636Y-1.7997
X1.9636Y-1.9571
X1.9636Y-2.1146
X1.9636Y-2.2721
X1.9636Y-2.4296
X1.9636Y-2.5871
X1.9636Y-2.7445
X1.9636Y-2.902
X1.9636Y-3.0595
X1.9636Y-3.217
X1.9636Y-3.3745
X1.9636Y-3.5319
X1.9636Y-3.6894
X1.9636Y-3.8469
X1.9636Y-4.0044
X1.9636Y-4.1619
X1.9636Y-4.7918
X1.9636Y-5.4217
X1.9636Y-5.7367
X1.9636Y-6.091
X2.003Y-0.4611
X2.003Y-0.8941
X2.003Y-4.3587
X2.003Y-4.5162
X2.003Y-4.6737
X2.003Y-4.9099
X2.003Y-5.2249
X2.003Y-5.5398
X2.003Y-5.8548
X2.003Y-6.2091
X2.0424Y-0.5792
X2.0424Y-0.7367
X2.0424Y-1.091
X2.0424Y-1.2485
X2.0424Y-1.406
X2.0424Y-1.5634
X2.0424Y-1.7209
X2.0424Y-1.8784
X2.0424Y-2.0359
X2.0424Y-2.1934
X2.0424Y-2.3508
X2.0424Y-2.5083
X2.0424Y-2.6658
X2.0424Y-2.8233
X2.0424Y-2.9808
X2.0424Y-3.1382
X2.0424Y-3.2957
X2.0424Y-3.4532
X2.0424Y-3.6107
X2.0424Y-3.7682
X2.0424Y-3.9256
X2.0424Y-4.0831
X2.0424Y-5.028
X2.0424Y-5.343
X2.0424Y-5.6579
X2.0424Y-5.9729
X2.0817Y-0.9729
X2.0817Y-4.2012
X2.0817Y-4.4374
X2.0817Y-4.5949
X2.0817Y-4.7524
X2.0817Y-5.4611
X2.0817Y-5.776
X2.0817Y-6.1304
X2.1211Y-0.5004
X2.1211Y-0.6579
X2.1211Y-0.8154
X2.1211Y-1.1697
X2.1211Y-1.3272
X2.1211Y-1.4847
X2.1211Y-1.6422
X2.1211Y-1.7997
X2.1211Y-1.9571
X2.1211Y-2.1146
X2.1211Y-2.2721
X2.1211Y-2.4296
X2.1211Y-2.5871
X2.1211Y-2.7445
X2.1211Y-2.902
X2.1211Y-3.0595
X2.1211Y-3.217
X2.1211Y-3.3745
X2.1211Y-3.5319
X2.1211Y-3.6894
X2.1211Y-3.8469
X2.1211Y-4.0044
X2.1211Y-4.8705
X2.1211Y-5.1067
X2.1605Y-1.0516
X2.1605Y-4.1225
X2.1605Y-4.3587
X2.1605Y-4.5162
X2.1605Y-4.6737
X2.1605Y-4.9886
X2.1605Y-6.2091
X2.1998Y-0.5792
X2.1998Y-0.7367
X2.1998Y-0.8941
X2.1998Y-1.2485
X2.1998Y-1.406
X2.1998Y-1.5634
X2.1998Y-1.7209
X2.1998Y-1.8784
X2.1998Y-2.0359
X2.1998Y-2.1934
X2.1998Y-2.3508
X2.1998Y-2.5083
X2.1998Y-2.6658
X2.1998Y-2.8233
X2.1998Y-2.9808
X2.1998Y-3.1382
X2.1998Y-3.2957
X2.1998Y-3.4532
X2.1998Y-3.6107
X2.1998Y-3.7682
X2.1998Y-3.9256
X2.1998Y-4.7918
X2.1998Y-5.1855
X2.2392Y-0.4611
X2.2392Y-1.1304
X2.2392Y-4.0437
X2.2392Y-4.2012
X2.2392Y-4.4374
X2.2392Y-4.5949
X2.2392Y-4.9099
X2.2392Y-5.0674
X2.2392Y-5.3036
X2.2392Y-5.4611
X2.2392Y-5.6186
X2.2392Y-5.776
X2.2392Y-5.9335
X2.2786Y-0.6579
X2.2786Y-0.8154
X2.2786Y-0.9729
X2.2786Y-1.3272
X2.2786Y-1.4847
X2.2786Y-1.6422
X2.2786Y-1.7997
X2.2786Y-1.9571
X2.2786Y-2.1146
X2.2786Y-2.2721
X2.2786Y-2.4296
X2.2786Y-2.5871
X2.2786Y-2.7445
X2.2786Y-2.902
X2.2786Y-3.0595
X2.2786Y-3.217
X2.2786Y-3.3745
X2.2786Y-3.5319
X2.2786Y-3.6894
X2.2786Y-3.8469
X2.2786Y-4.713
X2.318Y-0.5398
X2.318Y-1.2091
X2.318Y-3.965
X2.318Y-4.1225
X2.318Y-4.3587
X2.318Y-4.5162
X2.318Y-4.8311
X2.318Y-4.9886
X2.318Y-5.1461
X2.318Y-5.3823
X2.318Y-5.5398
X2.318Y-5.6973
X2.318Y-5.8548
X2.3573Y-0.7367
X2.3573Y-0.8941
X2.3573Y-1.0516
X2.3573Y-1.406
X2.3573Y-1.5634
X2.3573Y-1.7209
X2.3573Y-1.8784
X2.3573Y-2.0359
X2.3573Y-2.1934
X2.3573Y-2.3508
X2.3573Y-2.5083
X2.3573Y-2.6658
X2.3573Y-2.8233
X2.3573Y-2.9808
X2.3573Y-3.1382
X2.3573Y-3.2957
X2.3573Y-3.4532
X2.3573Y-3.6107
X2.3573Y-3.7682
X2.3573Y-4.6343
X2.3573Y-5.2642
X2.3967Y-0.4611
X2.3967Y-0.6186
X2.3967Y-1.2878
X2.3967Y-3.8863
X2.3967Y-4.0437
X2.3967Y-4.2012
X2.3967Y-4.4374
X2.3967Y-4.7524
X2.3967Y-4.9099
X2.3967Y-5.0674
X2.3967Y-5.6186
X2.4361Y-0.8154
X2.4361Y-0.9729
X2.4361Y-1.1304
X2.4361Y-1.4847
X2.4361Y-1.6422
X2.4361Y-1.7997
X2.4361Y-1.9571
X2.4361Y-2.1146
X2.4361Y-2.2721
X2.4361Y-2.4296
X2.4361Y-2.5871
X2.4361Y-2.7445
X2.4361Y-2.902
X2.4361Y-3.0595
X2.4361Y-3.217
X2.4361Y-3.3745
X2.4361Y-3.5319
X2.4361Y-3.6894
X2.4361Y-4.5556
X2.4361Y-5.1855
X2.4361Y-5.5004
X2.4754Y-0.5398
X2.4754Y-0.6973
X2.4754Y-1.3666
X2.4754Y-3.8075
X2.4754Y-3.965
X2.4754Y-4.1225
X2.4754Y-4.3587
X2.4754Y-4.6737
X2.4754Y-4.8311
X2.4754Y-4.9886
X2.4754Y-5.6973
X2.5148Y-0.8941
X2.5148Y-1.0516
X2.5148Y-1.2091
X2.5148Y-1.5634
X2.5148Y-1.7209
X2.5148Y-1.8784
X2.5148Y-2.0359
X2.5148Y-2.1934
X2.5148Y-2.3508
X2.5148Y-2.5083
X2.5148Y-2.6658
X2.5148Y-2.8233
X2.5148Y-2.9808
X2.5148Y-3.1382
X2.5148Y-3.2957
X2.5148Y-3.4532
X2.5148Y-3.6107
X2.5148Y-4.4768
X2.5148Y-5.1067
X2.5148Y-5.5792
X2.5542Y-0.4611
X2.5542Y-0.6186
X2.5542Y-0.776
X2.5542Y-1.4453
X2.5542Y-3.7288
X2.5542Y-3.8863
X2.5542Y-4.0437
X2.5542Y-4.2012
X2.5542Y-4.5949
X2.5542Y-4.7524
X2.5542Y-4.9099
X2.5542Y-6.2091
X2.5935Y-0.9729
X2.5935Y-1.1304
X2.5935Y-1.2878
X2.5935Y-1.6422
X2.5935Y-1.7997
X2.5935Y-1.9571
X2.5935Y-2.1146
X2.5935Y-2.2721
X2.5935Y-2.4296
X2.5935Y-2.5871
X2.5935Y-2.7445
X2.5935Y-2.902
X2.5935Y-3.0595
X2.5935Y-3.217
X2.5935Y-3.3745
X2.5935Y-3.5319
X2.5935Y-4.3981
X2.5935Y-5.028
X2.5935Y-5.3036
X2.5935Y-5.5004
X2.5935Y-5.6579
X2.6329Y-0.5398
X2.6329Y-0.6973
X2.6329Y-0.8548
X2.6329Y-1.5241
X2.6329Y-3.65
X2.6329Y-3.8075
X2.6329Y-3.965
X2.6329Y-4.1225
X2.6329Y-4.5162
X2.6329Y-4.6737
X2.6329Y-4.8311
X2.6723Y-1.0516
X2.6723Y-1.2091
X2.6723Y-1.3666
X2.6723Y-1.7209
X2.6723Y-1.8784
X2.6723Y-2.0359
X2.6723Y-2.1934
X2.6723Y-2.3508
X2.6723Y-2.5083
X2.6723Y-2.6658
X2.6723Y-2.8233
X2.6723Y-2.9808
X2.6723Y-3.1382
X2.6723Y-3.2957
X2.6723Y-3.4532
X2.6723Y-4.9493
X2.6723Y-5.2249
X2.6723Y-5.5792
X2.7117Y-0.4611
X2.7117Y-0.6186
X2.7117Y-0.776
X2.7117Y-0.9335
X2.7117Y-1.6028
X2.7117Y-3.5713
X2.7117Y-3.7288
X2.7117Y-3.8863
X2.7117Y-4.0437
X2.7117Y-4.2012
X2.7117Y-4.3587
X2.7117Y-4.5949
X2.7117Y-4.7524
X2.7117Y-5.6973
X2.7117Y-6.2091
X2.751Y-1.1304
X2.751Y-1.2878
X2.751Y-1.4453
X2.751Y-1.7997
X2.751Y-1.9571
X2.751Y-2.1146
X2.751Y-2.2721
X2.751Y-2.4296
X2.751Y-2.5871
X2.751Y-2.7445
X2.751Y-2.902
X2.751Y-3.0595
X2.751Y-3.217
X2.751Y-3.3745
X2.751Y-4.4768
X2.751Y-4.8705
X2.751Y-5.1461
X2.751Y-5.5004
X2.7904Y-0.5398
X2.7904Y-0.6973
X2.7904Y-0.8548
X2.7904Y-1.0123
X2.7904Y-1.6815
X2.7904Y-3.4926
X2.7904Y-3.65
X2.7904Y-3.8075
X2.7904Y-3.965
X2.7904Y-4.1225
X2.7904Y-4.6737
X2.7904Y-4.9886
X2.7904Y-5.343
X2.8298Y-1.2091
X2.8298Y-1.3666
X2.8298Y-1.5241
X2.8298Y-1.8784
X2.8298Y-2.0359
X2.8298Y-2.1934
X2.8298Y-2.3508
X2.8298Y-2.5083
X2.8298Y-2.6658
X2.8298Y-2.8233
X2.8298Y-2.9808
X2.8298Y-3.1382
X2.8298Y-3.2957
X2.8298Y-4.3981
X2.8298Y-4.5556
X2.8298Y-4.7918
X2.8691Y-0.4611
X2.8691Y-0.6186
X2.8691Y-0.776
X2.8691Y-0.9335
X2.8691Y-1.091
X2.8691Y-1.7603
X2.8691Y-3.4138
X2.8691Y-3.5713
X2.8691Y-3.7288
X2.8691Y-3.8863
X2.8691Y-4.0437
X2.8691Y-4.2012
X2.8691Y-4.9099
X2.8691Y-5.2642
X2.8691Y-5.4611
X2.8691Y-6.2091
X2.9085Y-1.2878
X2.9085Y-1.4453
X2.9085Y-1.6028
X2.9085Y-1.9571
X2.9085Y-2.1146
X2.9085Y-2.2721
X2.9085Y-2.4296
X2.9085Y-2.5871
X2.9085Y-2.7445
X2.9085Y-2.902
X2.9085Y-3.0595
X2.9085Y-3.217
X2.9085Y-4.4768
X2.9085Y-4.6343
X2.9479Y-0.5398
X2.9479Y-0.6973
X2.9479Y-0.8548
X2.9479Y-1.0123
X2.9479Y-1.1697
X2.9479Y-1.839
X2.9479Y-3.3351
X2.9479Y-3.4926
X2.9479Y-3.65
X2.9479Y-3.8075
X2.9479Y-3.965
X2.9479Y-4.1225
X2.9479Y-4.3587
X2.9479Y-4.7524
X2.9479Y-4.9886
X2.9479Y-5.1855
X2.9479Y-5.343
X2.9479Y-5.5398
X2.9479Y-5.8154
X2.9872Y-1.3666
X2.9872Y-1.5241
X2.9872Y-1.6815
X2.9872Y-2.0359
X2.9872Y-2.1934
X2.9872Y-4.5556
X2.9872Y-4.8705
X3.0266Y-0.4611
X3.0266Y-0.6186
X3.0266Y-0.776
X3.0266Y-0.9335
X3.0266Y-1.091
X3.0266Y-1.2485
X3.0266Y-1.9178
X3.0266Y-4.6737
X3.0266Y-5.2642
X3.0266Y-5.4611
X3.0266Y-5.7367
X3.0266Y-5.8941
X3.0266Y-6.2091
X3.066Y-1.4453
X3.066Y-1.6028
X3.066Y-1.7603
X3.066Y-2.1146
X3.066Y-4.7918
X3.066Y-4.9493
X3.066Y-6.0123
X3.1054Y-0.5398
X3.1054Y-0.6973
X3.1054Y-0.8548
X3.1054Y-1.0123
X3.1054Y-1.1697
X3.1054Y-1.3272
X3.1054Y-1.9965
X3.1054Y-2.4296
X3.1054Y-2.5871
X3.1054Y-2.7445
X3.1054Y-2.902
X3.1054Y-3.0595
X3.1054Y-3.217
X3.1054Y-3.3745
X3.1054Y-3.5319
X3.1054Y-3.6894
X3.1054Y-3.8469
X3.1054Y-4.0044
X3.1054Y-4.1619
X3.1054Y-4.5949
X3.1054Y-5.6579
X3.1054Y-5.8154
X3.1447Y-1.5241
X3.1447Y-1.6815
X3.1447Y-1.839
X3.1447Y-5.9335
X3.1447Y-6.091
X3.1841Y-0.4611
X3.1841Y-0.6186
X3.1841Y-0.776
X3.1841Y-0.9335
X3.1841Y-1.091
X3.1841Y-1.2485
X3.1841Y-1.406
X3.1841Y-2.0752
X3.1841Y-2.3508
X3.1841Y-2.5083
X3.1841Y-2.6658
X3.1841Y-2.8233
X3.1841Y-2.9808
X3.1841Y-3.1382
X3.1841Y-3.2957
X3.1841Y-3.4532
X3.1841Y-3.6107
X3.1841Y-3.7682
X3.1841Y-3.9256
X3.1841Y-4.0831
X3.1841Y-4.2406
X3.1841Y-5.7367
X3.1841Y-6.2091
X3.2235Y-1.6028
X3.2235Y-1.7603
X3.2235Y-1.9178
X3.2235Y-4.7918
X3.2235Y-5.8548
X3.2235Y-6.0123
X3.2628Y-0.5398
X3.2628Y-0.6973
X3.2628Y-0.8548
X3.2628Y-1.0123
X3.2628Y-1.1697
X3.2628Y-1.3272
X3.2628Y-1.4847
X3.2628Y-2.2721
X3.2628Y-2.5871
X3.2628Y-2.7445
X3.2628Y-3.0595
X3.2628Y-3.217
X3.2628Y-3.3745
X3.2628Y-3.5319
X3.2628Y-3.6894
X3.2628Y-3.8469
X3.2628Y-4.0044
X3.2628Y-4.1619
X3.2628Y-4.3193
X3.2628Y-5.1855
X3.2628Y-5.4611
X3.3022Y-1.6815
X3.3022Y-1.839
X3.3022Y-1.9965
X3.3022Y-2.4689
X3.3022Y-2.8626
X3.3022Y-5.776
X3.3022Y-5.9335
X3.3022Y-6.091
X3.3416Y-0.4611
X3.3416Y-0.6186
X3.3416Y-0.776
X3.3416Y-0.9335
X3.3416Y-1.091
X3.3416Y-1.2485
X3.3416Y-1.406
X3.3416Y-1.5634
X3.3416Y-2.6658
X3.3416Y-3.1382
X3.3416Y-3.2957
X3.3416Y-3.4532
X3.3416Y-3.6107
X3.3416Y-3.7682
X3.3416Y-3.9256
X3.3416Y-4.0831
X3.3416Y-4.2406
X3.3416Y-4.3981
X3.3416Y-4.7524
X3.3416Y-5.3823
X3.3416Y-5.5398
X3.3416Y-6.2091
X3.3809Y-1.7603
X3.3809Y-1.9178
X3.3809Y-2.0752
X3.3809Y-2.2327
X3.3809Y-2.5477
X3.3809Y-2.7839
X3.3809Y-4.5162
X3.4203Y-0.5398
X3.4203Y-0.6973
X3.4203Y-0.8548
X3.4203Y-1.0123
X3.4203Y-1.1697
X3.4203Y-1.3272
X3.4203Y-1.4847
X3.4203Y-1.6422
X3.4203Y-3.0595
X3.4203Y-3.217
X3.4203Y-3.3745
X3.4203Y-3.5319
X3.4203Y-3.6894
X3.4203Y-3.8469
X3.4203Y-4.0044
X3.4203Y-4.1619
X3.4203Y-4.3193
X3.4203Y-4.8311
X3.4203Y-5.3036
X3.4203Y-5.6186
X3.4597Y-1.839
X3.4597Y-1.9965
X3.4597Y-2.4689
X3.4597Y-2.6264
X3.4597Y-2.8626
X3.4597Y-4.4374
X3.4597Y-5.5004
X3.4991Y-0.4611
X3.4991Y-0.6186
X3.4991Y-0.776
X3.4991Y-0.9335
X3.4991Y-1.091
X3.4991Y-1.2485
X3.4991Y-1.406
X3.4991Y-1.5634
X3.4991Y-1.7209
X3.4991Y-2.7445
X3.4991Y-3.1382
X3.4991Y-3.2957
X3.4991Y-3.4532
X3.4991Y-3.6107
X3.4991Y-3.7682
X3.4991Y-3.9256
X3.4991Y-4.0831
X3.4991Y-4.2406
X3.4991Y-4.7524
X3.4991Y-5.2249
X3.4991Y-6.2091
X3.5384Y-1.9178
X3.5384Y-2.0752
X3.5384Y-2.2327
X3.5384Y-2.5477
X3.5384Y-4.3587
X3.5384Y-5.5792
X3.5778Y-0.5398
X3.5778Y-0.6973
X3.5778Y-0.8548
X3.5778Y-1.0123
X3.5778Y-1.1697
X3.5778Y-1.3272
X3.5778Y-1.4847
X3.5778Y-1.6422
X3.5778Y-1.7997
X3.5778Y-2.6658
X3.5778Y-2.8233
X3.5778Y-3.0595
X3.5778Y-3.217
X3.5778Y-3.3745
X3.5778Y-3.5319
X3.5778Y-3.6894
X3.5778Y-3.8469
X3.5778Y-4.0044
X3.5778Y-4.1619
X3.5778Y-4.4768
X3.5778Y-5.1461
X3.6172Y-1.9965
X3.6172Y-2.4689
X3.6172Y-4.28
X3.6172Y-4.7918
X3.6172Y-5.5004
X3.6172Y-5.6579
X3.6565Y-0.4611
X3.6565Y-0.6186
X3.6565Y-0.776
X3.6565Y-0.9335
X3.6565Y-1.091
X3.6565Y-1.2485
X3.6565Y-1.406
X3.6565Y-1.5634
X3.6565Y-1.7209
X3.6565Y-1.8784
X3.6565Y-2.5871
X3.6565Y-2.7445
X3.6565Y-3.2957
X3.6565Y-3.4532
X3.6565Y-3.7682
X3.6565Y-3.9256
X3.6565Y-4.0831
X3.6565Y-4.3981
X3.6565Y-5.0674
X3.6565Y-6.2091
X3.6959Y-2.0752
X3.6959Y-2.2327
X3.6959Y-2.8626
X3.6959Y-3.65
X3.6959Y-4.2012
X3.6959Y-5.5792
X3.7353Y-0.5398
X3.7353Y-0.6973
X3.7353Y-0.8548
X3.7353Y-1.0123
X3.7353Y-1.1697
X3.7353Y-1.3272
X3.7353Y-1.4847
X3.7353Y-1.6422
X3.7353Y-1.7997
X3.7353Y-1.9571
X3.7353Y-2.6658
X3.7353Y-3.3745
X3.7353Y-3.8469
X3.7353Y-4.0044
X3.7353Y-4.3193
X3.7746Y-3.2563
X3.7746Y-3.7288
X3.7746Y-4.1225
X3.7746Y-4.7918
X3.7746Y-5.5004
X3.7746Y-5.6579
X3.814Y-0.4611
X3.814Y-0.6186
X3.814Y-0.776
X3.814Y-0.9335
X3.814Y-1.091
X3.814Y-1.2485
X3.814Y-1.406
X3.814Y-1.5634
X3.814Y-1.7209
X3.814Y-1.8784
X3.814Y-2.0359
X3.814Y-2.2721
X3.814Y-3.9256
X3.814Y-4.2406
X3.814Y-4.3981
X3.814Y-6.2091
X3.8534Y-3.3351
X3.8534Y-3.65
X3.8534Y-3.8075
X3.8534Y-4.0437
X3.8534Y-5.5792
X3.8928Y-0.5398
X3.8928Y-0.6973
X3.8928Y-0.8548
X3.8928Y-1.0123
X3.8928Y-1.1697
X3.8928Y-1.3272
X3.8928Y-1.4847
X3.8928Y-1.6422
X3.8928Y-1.7997
X3.8928Y-1.9571
X3.8928Y-2.6658
X3.8928Y-4.1619
X3.8928Y-4.3193
X3.9321Y-2.0752
X3.9321Y-2.2327
X3.9321Y-2.4689
X3.9321Y-2.7839
X3.9321Y-3.2563
X3.9321Y-3.7288
X3.9321Y-3.8863
X3.9321Y-4.7918
X3.9321Y-5.343
X3.9321Y-5.5004
X3.9715Y-0.4611
X3.9715Y-0.6186
X3.9715Y-0.776
X3.9715Y-0.9335
X3.9715Y-1.091
X3.9715Y-1.2485
X3.9715Y-1.406
X3.9715Y-1.5634
X3.9715Y-1.7209
X3.9715Y-1.8784
X3.9715Y-2.5871
X3.9715Y-4.0044
X3.9715Y-4.2406
X3.9715Y-4.3981
X4.0109Y-1.9965
X4.0109Y-2.7052
X4.0109Y-2.8626
X4.0109Y-3.3351
X4.0109Y-3.65
X4.0109Y-3.8075
X4.0109Y-4.1225
X4.0109Y-5.2642
X4.0109Y-5.4217
X4.0502Y-0.5398
X4.0502Y-0.6973
X4.0502Y-0.8548
X4.0502Y-1.0123
X4.0502Y-1.1697
X4.0502Y-1.3272
X4.0502Y-1.4847
X4.0502Y-1.6422
X4.0502Y-1.7997
X4.0502Y-2.5083
X4.0502Y-3.9256
X4.0502Y-4.3193
X4.0896Y-1.9178
X4.0896Y-2.0752
X4.0896Y-2.2327
X4.0896Y-2.6264
X4.0896Y-2.7839
X4.0896Y-3.2563
X4.0896Y-3.7288
X4.0896Y-4.0437
X4.0896Y-4.2012
X4.0896Y-4.7918
X4.0896Y-5.1855
X4.0896Y-5.343
X4.0896Y-5.5004
X4.0896Y-5.8154
X4.0896Y-6.2091
X4.129Y-0.4611
X4.129Y-0.6186
X4.129Y-0.776
X4.129Y-0.9335
X4.129Y-1.091
X4.129Y-1.2485
X4.129Y-1.406
X4.129Y-1.5634
X4.129Y-1.7209
X4.129Y-3.8469
X4.129Y-4.3981
X4.129Y-5.9335
X4.129Y-6.091
X4.1683Y-1.839
X4.1683Y-1.9965
X4.1683Y-2.4689
X4.1683Y-2.7052
X4.1683Y-2.8626
X4.1683Y-3.1776
X4.1683Y-3.3351
X4.1683Y-3.65
X4.1683Y-3.965
X4.1683Y-4.1225
X4.1683Y-4.28
X4.1683Y-5.0674
X4.1683Y-5.2642
X4.1683Y-5.4217
X4.1683Y-5.7367
X4.2077Y-0.5398
X4.2077Y-0.6973
X4.2077Y-0.8548
X4.2077Y-1.0123
X4.2077Y-1.1697
X4.2077Y-1.3272
X4.2077Y-1.4847
X4.2077Y-1.6422
X4.2077Y-2.5871
X4.2077Y-3.0595
X4.2077Y-3.7682
X4.2077Y-4.8311
X4.2077Y-5.8548
X4.2077Y-6.0123
X4.2471Y-1.7603
X4.2471Y-1.9178
X4.2471Y-2.0752
X4.2471Y-2.2327
X4.2471Y-2.7839
X4.2471Y-3.2563
X4.2471Y-5.1461
X4.2471Y-5.343
X4.2471Y-5.6579
X4.2471Y-6.2091
X4.2865Y-0.4611
X4.2865Y-0.6186
X4.2865Y-0.776
X4.2865Y-0.9335
X4.2865Y-1.091
X4.2865Y-1.2485
X4.2865Y-1.406
X4.2865Y-1.5634
X4.2865Y-2.5083
X4.2865Y-2.6658
X4.2865Y-5.028
X4.2865Y-5.776
X4.2865Y-5.9335
X4.2865Y-6.091
X4.3258Y-1.6815
X4.3258Y-1.839
X4.3258Y-1.9965
X4.3258Y-3.3351
X4.3258Y-4.7524
X4.3258Y-4.9099
X4.3258Y-5.2249
X4.3258Y-5.5792
X4.3652Y-0.5398
X4.3652Y-0.6973
X4.3652Y-0.8548
X4.3652Y-1.0123
X4.3652Y-1.1697
X4.3652Y-1.3272
X4.3652Y-1.4847
X4.3652Y-2.5871
X4.3652Y-5.1067
X4.3652Y-5.6973
X4.3652Y-5.8548
X4.3652Y-6.0123
X4.4046Y-1.6028
X4.4046Y-1.7603
X4.4046Y-1.9178
X4.4046Y-2.0752
X4.4046Y-2.2327
X4.4046Y-2.4689
X4.4046Y-3.2563
X4.4046Y-3.8863
X4.4046Y-4.0437
X4.4046Y-4.2012
X4.4046Y-4.3587
X4.4046Y-4.6737
X4.4046Y-4.8311
X4.4046Y-4.9886
X4.4046Y-5.5004
X4.4046Y-6.2091
X4.4439Y-0.4611
X4.4439Y-0.6186
X4.4439Y-0.776
X4.4439Y-0.9335
X4.4439Y-1.091
X4.4439Y-1.2485
X4.4439Y-1.406
X4.4439Y-2.6658
X4.4439Y-2.8626
X4.4439Y-5.1855
X4.4439Y-5.6186
X4.4439Y-5.776
X4.4439Y-5.9335
X4.4439Y-6.091
X4.4833Y-1.5241
X4.4833Y-1.6815
X4.4833Y-1.839
X4.4833Y-1.9965
X4.4833Y-2.5477
X4.4833Y-3.3351
X4.4833Y-3.965
X4.4833Y-4.1225
X4.4833Y-4.28
X4.4833Y-4.7524
X4.4833Y-4.9099
X4.4833Y-5.0674
X4.4833Y-5.4217
X4.5227Y-0.5398
X4.5227Y-0.6973
X4.5227Y-0.8548
X4.5227Y-1.0123
X4.5227Y-1.1697
X4.5227Y-1.3272
X4.5227Y-2.2721
X4.5227Y-4.5949
X4.5227Y-5.5398
X4.5227Y-5.6973
X4.5227Y-5.8548
X4.5227Y-6.0123
X4.562Y-1.4453
X4.562Y-1.6028
X4.562Y-1.7603
X4.562Y-1.9178
X4.562Y-2.0752
X4.562Y-2.4689
X4.562Y-2.6264
X4.562Y-2.8233
X4.562Y-3.2563
X4.562Y-4.8311
X4.562Y-4.9886
X4.562Y-5.343
X4.562Y-6.2091
X4.6014Y-0.4611
X4.6014Y-0.6186
X4.6014Y-0.776
X4.6014Y-0.9335
X4.6014Y-1.091
X4.6014Y-1.2485
X4.6014Y-4.6737
X4.6014Y-5.4611
X4.6014Y-5.6186
X4.6014Y-5.776
X4.6014Y-5.9335
X4.6014Y-6.091
X4.6408Y-1.3666
X4.6408Y-1.5241
X4.6408Y-1.6815
X4.6408Y-1.839
X4.6408Y-1.9965
X4.6408Y-2.2327
X4.6408Y-2.5477
X4.6408Y-3.3351
X4.6408Y-4.1225
X4.6408Y-4.28
X4.6408Y-4.4374
X4.6408Y-4.9099
X4.6408Y-5.2642
X4.6802Y-0.5398
X4.6802Y-0.6973
X4.6802Y-0.8548
X4.6802Y-1.0123
X4.6802Y-1.1697
X4.6802Y-2.6658
X4.6802Y-2.8626
X4.6802Y-3.217
X4.6802Y-3.65
X4.6802Y-3.8075
X4.6802Y-4.5949
X4.6802Y-4.7524
X4.6802Y-5.3823
X4.6802Y-5.5398
X4.6802Y-5.6973
X4.6802Y-5.8548
X4.6802Y-6.0123
X4.7195Y-1.2878
X4.7195Y-1.4453
X4.7195Y-1.6028
X4.7195Y-1.7603
X4.7195Y-1.9178
X4.7195Y-2.0752
X4.7195Y-2.4689
X4.7195Y-4.2012
X4.7195Y-4.3587
X4.7195Y-5.1855
X4.7195Y-6.2091
X4.7589Y-0.4611
X4.7589Y-0.6186
X4.7589Y-0.776
X4.7589Y-0.9335
X4.7589Y-1.091
X4.7589Y-2.5871
X4.7589Y-3.2957
X4.7589Y-3.7288
X4.7589Y-3.8863
X4.7589Y-4.4768
X4.7589Y-4.6737
X4.7589Y-4.8311
X4.7589Y-5.3036
X4.7589Y-5.4611
X4.7589Y-5.6186
X4.7589Y-5.776
X4.7589Y-5.9335
X4.7589Y-6.091
X4.7983Y-1.2091
X4.7983Y-1.3666
X4.7983Y-1.5241
X4.7983Y-1.6815
X4.7983Y-1.839
X4.7983Y-1.9965
X4.7983Y-2.2327
X4.7983Y-2.8233
X4.7983Y-4.28
X4.7983Y-5.1067
X4.8376Y-0.5398
X4.8376Y-0.6973
X4.8376Y-0.8548
X4.8376Y-1.0123
X4.8376Y-2.5083
X4.8376Y-2.6658
X4.8376Y-3.3745
X4.8376Y-3.8075
X4.8376Y-3.965
X4.8376Y-4.3981
X4.8376Y-5.2249
X4.8376Y-5.3823
X4.8376Y-5.5398
X4.8376Y-5.6973
X4.8376Y-5.8548
X4.8376Y-6.0123
X4.877Y-1.1304
X4.877Y-1.2878
X4.877Y-1.4453
X4.877Y-1.6028
X4.877Y-1.7603
X4.877Y-1.9178
X4.877Y-2.0752
X4.877Y-3.2563
X4.877Y-4.7524
X4.877Y-6.2091
X4.9164Y-0.4611
X4.9164Y-0.6186
X4.9164Y-0.776
X4.9164Y-0.9335
X4.9164Y-2.2721
X4.9164Y-2.5871
X4.9164Y-3.8863
X4.9164Y-4.0437
X4.9164Y-4.4768
X4.9164Y-5.1461
X4.9164Y-5.3036
X4.9164Y-5.4611
X4.9164Y-5.6186
X4.9164Y-5.776
X4.9164Y-5.9335
X4.9164Y-6.091
X4.9557Y-1.0516
X4.9557Y-1.2091
X4.9557Y-1.3666
X4.9557Y-1.5241
X4.9557Y-1.6815
X4.9557Y-1.839
X4.9557Y-1.9965
X4.9557Y-3.3351
X4.9951Y-0.5398
X4.9951Y-0.6973
X4.9951Y-0.8548
X4.9951Y-3.1382
X4.9951Y-3.4532
X4.9951Y-3.965
X4.9951Y-4.1225
X4.9951Y-4.7918
X4.9951Y-5.2249
X4.9951Y-5.3823
X4.9951Y-5.5398
X4.9951Y-5.6973
X4.9951Y-5.8548
X4.9951Y-6.0123
X5.0345Y-0.9729
X5.0345Y-1.1304
X5.0345Y-1.2878
X5.0345Y-1.4453
X5.0345Y-1.6028
X5.0345Y-1.7603
X5.0345Y-1.9178
X5.0345Y-2.0752
X5.0345Y-2.2327
X5.0345Y-3.2563
X5.0345Y-6.2091
X5.0739Y-0.4611
X5.0739Y-0.6186
X5.0739Y-0.776
X5.0739Y-3.3745
X5.0739Y-3.5319
X5.0739Y-4.0437
X5.0739Y-4.2012
X5.0739Y-5.3036
X5.0739Y-5.4611
X5.0739Y-5.6186
X5.0739Y-5.776
X5.0739Y-5.9335
X5.0739Y-6.091
X5.1132Y-0.8941
X5.1132Y-1.0516
X5.1132Y-1.2091
X5.1132Y-1.3666
X5.1132Y-1.5241
X5.1132Y-1.6815
X5.1132Y-1.839
X5.1132Y-1.9965
X5.1132Y-3.0989
X5.1526Y-0.5398
X5.1526Y-0.6973
X5.1526Y-3.217
X5.1526Y-3.4532
X5.1526Y-3.6107
X5.1526Y-4.7918
X5.1526Y-5.3823
X5.1526Y-5.5398
X5.1526Y-5.6973
X5.1526Y-5.8548
X5.1526Y-6.0123
X5.192Y-0.8154
X5.192Y-0.9729
X5.192Y-1.1304
X5.192Y-1.2878
X5.192Y-1.4453
X5.192Y-1.6028
X5.192Y-1.7603
X5.192Y-1.9178
X5.192Y-2.0752
X5.192Y-2.2327
X5.192Y-3.3351
X5.192Y-6.2091
X5.2313Y-0.4611
X5.2313Y-0.6186
X5.2313Y-2.4689
X5.2313Y-2.6264
X5.2313Y-3.5319
X5.2313Y-3.6894
X5.2313Y-3.9256
X5.2313Y-5.4611
X5.2313Y-5.6186
X5.2313Y-5.776
X5.2313Y-5.9335
X5.2313Y-6.091
X5.2707Y-0.7367
X5.2707Y-0.8941
X5.2707Y-1.0516
X5.2707Y-1.2091
X5.2707Y-1.3666
X5.2707Y-1.5241
X5.2707Y-1.6815
X5.2707Y-1.839
X5.2707Y-1.9965
X5.2707Y-3.2563
X5.2707Y-3.4138
X5.3101Y-0.5398
X5.3101Y-2.5477
X5.3101Y-3.6107
X5.3101Y-3.7682
X5.3101Y-4.0044
X5.3101Y-4.7918
X5.3101Y-5.5398
X5.3494Y-0.6579
X5.3494Y-0.8154
X5.3494Y-0.9729
X5.3494Y-1.1304
X5.3494Y-1.2878
X5.3494Y-1.4453
X5.3494Y-1.6028
X5.3494Y-1.7603
X5.3494Y-1.9178
X5.3494Y-2.0752
X5.3494Y-2.2327
X5.3494Y-2.6658
X5.3494Y-3.3351
X5.3494Y-3.4926
X5.3494Y-5.6579
X5.3494Y-6.2091
X5.3888Y-0.4611
X5.3888Y-2.4689
X5.3888Y-3.6894
X5.3888Y-3.8469
X5.3888Y-4.0831
X5.4282Y-0.5792
X5.4282Y-0.7367
X5.4282Y-0.8941
X5.4282Y-1.0516
X5.4282Y-1.2091
X5.4282Y-1.3666
X5.4282Y-1.5241
X5.4282Y-1.6815
X5.4282Y-1.839
X5.4282Y-1.9965
X5.4282Y-2.5871
X5.4282Y-3.0595
X5.4282Y-3.4138
X5.4282Y-3.5713
X5.4282Y-5.5004
X5.4676Y-3.7682
X5.4676Y-3.9256
X5.4676Y-4.1619
X5.4676Y-4.7918
X5.4676Y-5.6186
X5.5069Y-0.5004
X5.5069Y-0.6579
X5.5069Y-0.8154
X5.5069Y-0.9729
X5.5069Y-1.1304
X5.5069Y-1.2878
X5.5069Y-1.4453
X5.5069Y-1.6028
X5.5069Y-1.7603
X5.5069Y-1.9178
X5.5069Y-2.0752
X5.5069Y-2.6658
X5.5069Y-2.8233
X5.5069Y-3.1382
X5.5069Y-3.4926
X5.5069Y-3.65
X5.5069Y-6.2091
X5.5463Y-3.8469
X5.5463Y-4.0044
X5.5463Y-4.2406
X5.5463Y-5.5398
X5.5857Y-0.5792
X5.5857Y-0.7367
X5.5857Y-0.8941
X5.5857Y-1.0516
X5.5857Y-1.2091
X5.5857Y-1.3666
X5.5857Y-1.5241
X5.5857Y-1.6815
X5.5857Y-3.0595
X5.5857Y-3.217
X5.5857Y-3.5713
X5.5857Y-3.7288
X5.5857Y-5.6579
X5.625Y-0.4611
X5.625Y-2.4689
X5.625Y-3.9256
X5.625Y-4.0831
X5.625Y-4.3193
X5.625Y-4.7918
X5.6644Y-0.6579
X5.6644Y-0.8154
X5.6644Y-0.9729
X5.6644Y-1.1304
X5.6644Y-1.2878
X5.6644Y-1.4453
X5.6644Y-1.6028
X5.6644Y-2.7839
X5.6644Y-3.1382
X5.6644Y-3.2957
X5.6644Y-3.65
X5.6644Y-3.8075
X5.6644Y-5.5004
X5.6644Y-6.2091
X5.7038Y-0.5398
X5.7038Y-1.8784
X5.7038Y-2.0359
X5.7038Y-2.1934
X5.7038Y-2.5477
X5.7038Y-4.0044
X5.7038Y-4.1619
X5.7038Y-4.3981
X5.7038Y-5.6186
X5.7431Y-0.7367
X5.7431Y-0.8941
X5.7431Y-1.0516
X5.7431Y-1.2091
X5.7431Y-1.3666
X5.7431Y-1.5241
X5.7431Y-2.3115
X5.7431Y-2.6658
X5.7431Y-2.8626
X5.7431Y-3.0595
X5.7431Y-3.217
X5.7431Y-3.3745
X5.7431Y-3.7288
X5.7431Y-3.8863
X5.7431Y-4.7524
X5.7825Y-0.4611
X5.7825Y-0.6186
X5.7825Y-1.7997
X5.7825Y-1.9571
X5.7825Y-2.1146
X5.7825Y-2.4296
X5.7825Y-4.0831
X5.7825Y-4.2406
X5.7825Y-4.4768
X5.8219Y-0.8154
X5.8219Y-0.9729
X5.8219Y-1.1304
X5.8219Y-1.2878
X5.8219Y-1.4453
X5.8219Y-2.2327
X5.8219Y-2.5871
X5.8219Y-2.7445
X5.8219Y-2.9414
X5.8219Y-3.1382
X5.8219Y-3.2957
X5.8219Y-3.4532
X5.8219Y-3.8075
X5.8219Y-3.965
X5.8219Y-6.2091
X5.8613Y-0.5398
X5.8613Y-0.6973
X5.8613Y-1.7209
X5.8613Y-1.8784
X5.8613Y-2.0359
X5.8613Y-2.3508
X5.8613Y-4.1619
X5.8613Y-4.3193
X5.8613Y-4.7918
X5.8613Y-5.4217
X5.9006Y-0.8941
X5.9006Y-1.0516
X5.9006Y-1.2091
X5.9006Y-1.3666
X5.9006Y-2.154
X5.9006Y-2.4689
X5.9006Y-2.6658
X5.9006Y-2.8233
X5.9006Y-3.0201
X5.9006Y-3.217
X5.9006Y-3.3745
X5.9006Y-3.5319
X5.9006Y-3.8863
X5.9006Y-4.0437
X5.9006Y-4.4374
X5.94Y-0.4611
X5.94Y-0.6186
X5.94Y-0.776
X5.94Y-1.6422
X5.94Y-1.7997
X5.94Y-1.9571
X5.94Y-2.2721
X5.94Y-4.2406
X5.94Y-4.713
X5.94Y-5.028
X5.94Y-5.5004
X5.94Y-5.6579
X5.94Y-5.8154
X5.9794Y-0.9729
X5.9794Y-1.1304
X5.9794Y-1.2878
X5.9794Y-2.0752
X5.9794Y-2.3902
X5.9794Y-2.5477
X5.9794Y-2.7445
X5.9794Y-2.902
X5.9794Y-3.0989
X5.9794Y-3.2957
X5.9794Y-3.4532
X5.9794Y-3.6107
X5.9794Y-3.965
X5.9794Y-4.1225
X5.9794Y-4.3587
X5.9794Y-4.5162
X5.9794Y-4.8311
X5.9794Y-6.2091
X6.0187Y-0.5398
X6.0187Y-0.6973
X6.0187Y-0.8548
X6.0187Y-1.5634
X6.0187Y-1.7209
X6.0187Y-2.1934
X6.0187Y-4.6343
X6.0187Y-4.9493
X6.0187Y-5.1067
X6.0187Y-5.5792
X6.0581Y-1.0516
X6.0581Y-1.2091
X6.0581Y-2.3115
X6.0581Y-2.4689
X6.0581Y-2.6264
X6.0581Y-2.8233
X6.0581Y-2.9808
X6.0581Y-3.1776
X6.0581Y-3.3745
X6.0581Y-3.5319
X6.0581Y-3.6894
X6.0581Y-4.0437
X6.0581Y-4.2012
X6.0581Y-4.4374
X6.0581Y-4.7524
X6.0581Y-5.776
X6.0581Y-5.9335
X6.0581Y-6.091
X6.0975Y-0.4611
X6.0975Y-0.6186
X6.0975Y-0.776
X6.0975Y-0.9335
X6.0975Y-2.1146
X6.0975Y-4.3193
X6.0975Y-4.5556
X6.0975Y-4.8705
X6.0975Y-5.028
X6.0975Y-5.5004
X6.0975Y-5.6579
X6.1369Y-1.1304
X6.1369Y-2.2327
X6.1369Y-2.3902
X6.1369Y-2.5477
X6.1369Y-2.7052
X6.1369Y-2.902
X6.1369Y-3.0595
X6.1369Y-3.2563
X6.1369Y-3.4532
X6.1369Y-3.6107
X6.1369Y-3.7682
X6.1369Y-4.1225
X6.1369Y-4.6737
X6.1369Y-5.1461
X6.1369Y-5.8548
X6.1369Y-6.0123
X6.1369Y-6.2091
X6.1762Y-0.5398
X6.1762Y-0.6973
X6.1762Y-0.8548
X6.1762Y-1.0123
X6.1762Y-4.2406
X6.1762Y-4.3981
X6.1762Y-4.7918
X6.1762Y-4.9493
X6.1762Y-5.5792
X6.2156Y-1.2091
X6.2156Y-2.154
X6.2156Y-2.3115
X6.2156Y-2.4689
X6.2156Y-2.6264
X6.2156Y-2.7839
X6.2156Y-2.9808
X6.2156Y-3.1382
X6.2156Y-3.3351
X6.2156Y-3.5319
X6.2156Y-3.6894
X6.2156Y-3.8469
X6.2156Y-4.5162
X6.2156Y-5.0674
X6.2156Y-5.776
X6.2156Y-5.9335
X6.2156Y-6.091
X6.255Y-0.4611
X6.255Y-0.6186
X6.255Y-0.776
X6.255Y-0.9335
X6.255Y-1.091
X6.255Y-1.3272
X6.255Y-4.3193
X6.255Y-4.6343
X6.255Y-4.8705
X6.255Y-5.5004
X6.255Y-5.6579
X6.2943Y-1.7603
X6.2943Y-2.0752
X6.2943Y-2.2327
X6.2943Y-2.3902
X6.2943Y-2.5477
X6.2943Y-2.7052
X6.2943Y-2.8626
X6.2943Y-3.0595
X6.2943Y-3.217
X6.2943Y-3.4138
X6.2943Y-3.6107
X6.2943Y-3.7682
X6.2943Y-3.9256
X6.2943Y-4.4374
X6.2943Y-4.7524
X6.2943Y-4.9886
X6.2943Y-5.1461
X6.2943Y-5.8548
X6.2943Y-6.0123
X6.2943Y-6.2091
X6.3337Y-0.5398
X6.3337Y-0.6973
X6.3337Y-0.8548
X6.3337Y-1.0123
X6.3337Y-1.1697
X6.3337Y-4.5556
X6.3337Y-5.5792
X6.3731Y-1.6815
X6.3731Y-1.839
X6.3731Y-2.154
X6.3731Y-2.3115
X6.3731Y-2.4689
X6.3731Y-2.6264
X6.3731Y-2.7839
X6.3731Y-2.9414
X6.3731Y-3.1382
X6.3731Y-3.2957
X6.3731Y-3.4926
X6.3731Y-3.6894
X6.3731Y-3.8469
X6.3731Y-4.0044
X6.3731Y-4.3587
X6.3731Y-4.6737
X6.3731Y-4.8311
X6.3731Y-5.0674
X6.3731Y-5.776
X6.3731Y-5.9335
X6.3731Y-6.091
X6.4124Y-0.4611
X6.4124Y-0.6186
X6.4124Y-0.776
X6.4124Y-0.9335
X6.4124Y-1.091
X6.4124Y-4.4768
X6.4124Y-4.9493
X6.4124Y-5.5004
X6.4124Y-5.6579
X6.4518Y-1.6028
X6.4518Y-1.7603
X6.4518Y-2.0752
X6.4518Y-2.2327
X6.4518Y-2.3902
X6.4518Y-2.5477
X6.4518Y-2.7052
X6.4518Y-2.8626
X6.4518Y-3.0201
X6.4518Y-3.217
X6.4518Y-3.3745
X6.4518Y-3.5713
X6.4518Y-3.7682
X6.4518Y-3.9256
X6.4518Y-4.0831
X6.4518Y-4.5949
X6.4518Y-4.7524
X6.4518Y-5.1461
X6.4518Y-5.8548
X6.4518Y-6.0123
X6.4518Y-6.2091
X6.4912Y-0.5398
X6.4912Y-0.6973
X6.4912Y-0.8548
X6.4912Y-4.8705
X6.4912Y-5.028
X6.4912Y-5.5792
X6.5306Y-1.5241
X6.5306Y-1.6815
X6.5306Y-2.154
X6.5306Y-2.3115
X6.5306Y-2.4689
X6.5306Y-2.6264
X6.5306Y-2.7839
X6.5306Y-2.9414
X6.5306Y-3.0989
X6.5306Y-3.2957
X6.5306Y-3.4532
X6.5306Y-3.65
X6.5306Y-3.8469
X6.5306Y-4.0044
X6.5306Y-4.28
X6.5306Y-4.5162
X6.5306Y-4.6737
X6.5306Y-5.776
X6.5306Y-5.9335
X6.5699Y-0.4611
X6.5699Y-0.6186
X6.5699Y-0.776
X6.5699Y-0.9335
X6.5699Y-1.9965
X6.5699Y-4.1225
X6.5699Y-4.7918
X6.5699Y-4.9493
X6.5699Y-5.1067
X6.5699Y-5.5004
X6.5699Y-5.6579
X6.6093Y-1.6028
X6.6093Y-2.2327
X6.6093Y-2.3902
X6.6093Y-2.5477
X6.6093Y-2.7052
X6.6093Y-2.8626
X6.6093Y-3.0201
X6.6093Y-3.1776
X6.6093Y-3.3745
X6.6093Y-3.5319
X6.6093Y-3.7288
X6.6093Y-3.9256
X6.6093Y-4.3587
X6.6093Y-4.5949
X6.6093Y-6.2091
X6.6487Y-0.5398
X6.6487Y-0.6973
X6.6487Y-0.8548
X6.6487Y-2.0752
X6.6487Y-4.0437
X6.6487Y-4.713
X6.6487Y-4.8705
X6.6487Y-5.028
X6.6487Y-5.5792
X6.688Y-1.839
X6.688Y-2.3115
X6.688Y-2.4689
X6.688Y-2.6264
X6.688Y-2.7839
X6.688Y-2.9414
X6.688Y-3.0989
X6.688Y-3.2563
X6.688Y-3.4532
X6.688Y-3.6107
X6.688Y-3.8075
X6.688Y-4.28
X6.688Y-4.4374
X6.688Y-5.1461
X6.7274Y-0.4611
X6.7274Y-0.6186
X6.7274Y-0.776
X6.7274Y-1.0123
X6.7274Y-1.1697
X6.7274Y-1.6422
X6.7274Y-1.9965
X6.7274Y-2.154
X6.7274Y-4.1225
X6.7274Y-4.7918
X6.7274Y-4.9493
X6.7274Y-5.6579
X6.7668Y-1.2878
X6.7668Y-1.7603
X6.7668Y-2.3902
X6.7668Y-2.5477
X6.7668Y-2.7052
X6.7668Y-2.8626
X6.7668Y-3.0201
X6.7668Y-3.1776
X6.7668Y-3.3351
X6.7668Y-3.5319
X6.7668Y-3.6894
X6.7668Y-3.8863
X6.7668Y-4.3587
X6.7668Y-4.5162
X6.7668Y-5.0674
X6.7668Y-5.5398
X6.8061Y-0.5398
X6.8061Y-0.6973
X6.8061Y-1.091
X6.8061Y-2.0752
X6.8061Y-2.2327
X6.8061Y-4.8705
X6.8455Y-1.2091
X6.8455Y-1.6028
X6.8455Y-2.4689
X6.8455Y-2.6264
X6.8455Y-2.7839
X6.8455Y-2.9414
X6.8455Y-3.0989
X6.8455Y-3.2563
X6.8455Y-3.4138
X6.8455Y-3.6107
X6.8455Y-3.7682
X6.8455Y-3.965
X6.8455Y-4.28
X6.8455Y-4.4374
X6.8455Y-4.5949
X6.8455Y-4.9886
X6.8455Y-5.1461
X6.8455Y-5.6186
X6.8849Y-0.4611
X6.8849Y-0.6186
X6.8849Y-0.776
X6.8849Y-1.7209
X6.8849Y-1.9571
X6.8849Y-2.154
X6.8849Y-2.3115
X6.9243Y-1.1304
X6.9243Y-1.2878
X6.9243Y-2.5477
X6.9243Y-2.7052
X6.9243Y-2.8626
X6.9243Y-3.0201
X6.9243Y-3.1776
X6.9243Y-3.3351
X6.9243Y-3.4926
X6.9243Y-3.6894
X6.9243Y-3.8469
X6.9243Y-4.3587
X6.9243Y-4.9099
X6.9243Y-5.0674
X6.9243Y-5.2249
X6.9243Y-5.5398
X6.9636Y-0.5398
X6.9636Y-0.6973
X6.9636Y-0.8548
X6.9636Y-1.5634
X6.9636Y-1.8784
X6.9636Y-2.0359
X6.9636Y-2.2327
X6.9636Y-2.3902
X6.9636Y-4.0044
X6.9636Y-4.6343
X6.9636Y-5.6579
X7.003Y-1.0516
X7.003Y-1.2091
X7.003Y-2.6264
X7.003Y-2.7839
X7.003Y-2.9414
X7.003Y-3.0989
X7.003Y-3.2563
X7.003Y-3.4138
X7.003Y-3.5713
X7.003Y-3.7682
X7.003Y-4.28
X7.003Y-4.4374
X7.003Y-4.7524
X7.003Y-4.9886
X7.003Y-5.1461
X7.003Y-5.3036
X7.0424Y-0.4611
X7.0424Y-0.6186
X7.0424Y-0.776
X7.0424Y-1.7997
X7.0424Y-1.9571
X7.0424Y-2.1146
X7.0424Y-2.3115
X7.0424Y-2.4689
X7.0424Y-3.8863
X7.0424Y-4.0831
X7.0424Y-4.8705
X7.0424Y-5.5004
X7.0817Y-1.5241
X7.0817Y-1.6815
X7.0817Y-2.7052
X7.0817Y-2.8626
X7.0817Y-3.0201
X7.0817Y-3.1776
X7.0817Y-3.3351
X7.0817Y-3.4926
X7.0817Y-3.65
X7.0817Y-4.6737
X7.0817Y-5.0674
X7.0817Y-5.2249
X7.0817Y-5.3823
X7.1211Y-0.5398
X7.1211Y-0.6973
X7.1211Y-0.8548
X7.1211Y-1.1697
X7.1211Y-1.3272
X7.1211Y-1.8784
X7.1211Y-2.0359
X7.1211Y-2.1934
X7.1211Y-2.3902
X7.1211Y-2.5477
X7.1211Y-3.8075
X7.1211Y-3.965
X7.1211Y-4.7918
X7.1211Y-4.9493
X7.1605Y-0.9729
X7.1605Y-1.6028
X7.1605Y-1.7603
X7.1605Y-2.7839
X7.1605Y-2.9414
X7.1605Y-3.0989
X7.1605Y-3.2563
X7.1605Y-3.4138
X7.1605Y-3.5713
X7.1605Y-5.1461
X7.1605Y-5.3036
X7.1605Y-5.4611
X7.1998Y-0.4611
X7.1998Y-0.6186
X7.1998Y-0.776
X7.1998Y-1.091
X7.1998Y-1.2485
X7.1998Y-1.406
X7.1998Y-1.9571
X7.1998Y-2.1146
X7.1998Y-2.2721
X7.1998Y-2.4689
X7.1998Y-2.6264
X7.1998Y-3.6894
X7.1998Y-3.8863
X7.1998Y-4.0437
X7.1998Y-4.3587
X7.1998Y-4.6343
X7.1998Y-4.8705
X7.1998Y-5.028
X7.1998Y-5.5792
X7.1998Y-5.7367
X7.2392Y-0.8941
X7.2392Y-1.5241
X7.2392Y-1.6815
X7.2392Y-1.839
X7.2392Y-2.8626
X7.2392Y-3.0201
X7.2392Y-3.1776
X7.2392Y-3.3351
X7.2392Y-3.4926
X7.2392Y-5.2249
X7.2392Y-5.3823
X7.2392Y-5.8548
X7.2786Y-0.5398
X7.2786Y-0.6973
X7.2786Y-1.0123
X7.2786Y-1.1697
X7.2786Y-1.3272
X7.2786Y-2.0359
X7.2786Y-2.1934
X7.2786Y-2.3508
X7.2786Y-2.5477
X7.2786Y-2.7052
X7.2786Y-3.6107
X7.2786Y-3.7682
X7.2786Y-3.965
X7.2786Y-4.1225
X7.2786Y-4.9493
X7.2786Y-5.1067
X7.2786Y-5.5004
X7.2786Y-5.6579
X7.2786Y-6.1697
X7.318Y-0.8154
X7.318Y-1.4453
X7.318Y-1.6028
X7.318Y-1.7603
X7.318Y-1.9178
X7.318Y-2.9414
X7.318Y-3.0989
X7.318Y-3.2563
X7.318Y-3.4138
X7.318Y-5.3036
X7.318Y-5.776
X7.318Y-5.9335
X7.3573Y-0.4611
X7.3573Y-0.6186
X7.3573Y-0.9335
X7.3573Y-1.091
X7.3573Y-1.2485
X7.3573Y-2.1146
X7.3573Y-2.2721
X7.3573Y-2.4296
X7.3573Y-2.6264
X7.3573Y-2.7839
X7.3573Y-3.5319
X7.3573Y-3.6894
X7.3573Y-3.8469
X7.3573Y-4.0437
X7.3573Y-4.3981
X7.3573Y-5.028
X7.3573Y-5.1855
X7.3573Y-5.4217
X7.3573Y-5.5792
X7.3573Y-6.0516
X7.3967Y-0.7367
X7.3967Y-1.3666
X7.3967Y-1.5241
X7.3967Y-1.6815
X7.3967Y-1.839
X7.3967Y-1.9965
X7.3967Y-3.0201
X7.3967Y-3.1776
X7.3967Y-3.3351
X7.3967Y-4.1619
X7.3967Y-4.5162
X7.3967Y-4.7524
X7.3967Y-5.6973
X7.3967Y-5.8548
X7.3967Y-6.2091
X7.4361Y-0.5398
X7.4361Y-0.8548
X7.4361Y-1.0123
X7.4361Y-1.1697
X7.4361Y-2.1934
X7.4361Y-2.3508
X7.4361Y-2.5083
X7.4361Y-2.7052
X7.4361Y-2.8626
X7.4361Y-3.4532
X7.4361Y-3.6107
X7.4361Y-3.7682
X7.4361Y-3.9256
X7.4361Y-4.28
X7.4361Y-5.343
X7.4361Y-5.5004
X7.4361Y-5.9729
X7.4754Y-0.6579
X7.4754Y-1.2878
X7.4754Y-1.4453
X7.4754Y-1.6028
X7.4754Y-1.7603
X7.4754Y-1.9178
X7.4754Y-2.0752
X7.4754Y-3.0989
X7.4754Y-3.2563
X7.4754Y-4.0831
X7.4754Y-4.4374
X7.4754Y-4.8311
X7.4754Y-5.6186
X7.4754Y-5.776
X7.4754Y-6.091
X7.5148Y-0.4611
X7.5148Y-0.776
X7.5148Y-0.9335
X7.5148Y-1.091
X7.5148Y-2.2721
X7.5148Y-2.4296
X7.5148Y-2.5871
X7.5148Y-2.7839
X7.5148Y-2.9414
X7.5148Y-3.3745
X7.5148Y-3.5319
X7.5148Y-3.6894
X7.5148Y-3.8469
X7.5148Y-4.2012
X7.5148Y-5.4217
X7.5148Y-5.8941
X7.5542Y-1.2091
X7.5542Y-1.3666
X7.5542Y-1.5241
X7.5542Y-1.6815
X7.5542Y-1.839
X7.5542Y-1.9965
X7.5542Y-2.154
X7.5542Y-3.1776
X7.5542Y-3.965
X7.5542Y-4.3193
X7.5542Y-4.5162
X7.5542Y-5.5398
X7.5542Y-5.6973
X7.5542Y-6.0123
X7.5542Y-6.1697
X7.5935Y-0.8548
X7.5935Y-1.0123
X7.5935Y-2.3508
X7.5935Y-2.5083
X7.5935Y-2.6658
X7.5935Y-2.8626
X7.5935Y-3.0201
X7.5935Y-3.2957
X7.5935Y-3.4532
X7.5935Y-3.6107
X7.5935Y-3.7682
X7.5935Y-4.1225
X7.5935Y-5.343
X7.6329Y-0.7367
X7.6329Y-1.1304
X7.6329Y-1.2878
X7.6329Y-1.4453
X7.6329Y-1.6028
X7.6329Y-1.7603
X7.6329Y-1.9178
X7.6329Y-2.0752
X7.6329Y-2.2327
X7.6329Y-3.8863
X7.6329Y-4.2406
X7.6329Y-4.3981
X7.6329Y-4.8705
X7.6329Y-5.028
X7.6329Y-5.1855
X7.6329Y-5.4611
X7.6329Y-5.6186
X7.6329Y-6.091
X7.6723Y-0.4611
X7.6723Y-0.9335
X7.6723Y-2.4296
X7.6723Y-2.5871
X7.6723Y-2.7445
X7.6723Y-2.9414
X7.6723Y-3.0989
X7.6723Y-3.3745
X7.6723Y-3.5319
X7.6723Y-3.6894
X7.6723Y-4.0044
X7.6723Y-4.5556
X7.6723Y-4.713
X7.6723Y-5.7367
X7.6723Y-6.2091
X7.7117Y-0.8154
X7.7117Y-1.0516
X7.7117Y-1.2091
X7.7117Y-1.3666
X7.7117Y-1.5241
X7.7117Y-1.6815
X7.7117Y-1.839
X7.7117Y-1.9965
X7.7117Y-2.154
X7.7117Y-2.3115
X7.7117Y-3.217
X7.7117Y-3.8075
X7.7117Y-4.1619
X7.7117Y-4.3193
X7.7117Y-4.9493
X7.7117Y-5.1067
X7.7117Y-5.2642
X7.7117Y-5.5398
X7.751Y-2.5083
X7.751Y-2.6658
X7.751Y-2.8233
X7.751Y-3.0201
X7.751Y-3.4532
X7.751Y-3.6107
X7.751Y-3.9256
X7.751Y-4.4374
X7.751Y-4.6343
X7.751Y-4.7918
X7.751Y-5.3823
X7.751Y-5.6579
X7.751Y-6.0516
X7.7904Y-0.5004
X7.7904Y-0.6973
X7.7904Y-0.8941
X7.7904Y-1.1304
X7.7904Y-1.2878
X7.7904Y-1.4453
X7.7904Y-1.6028
X7.7904Y-1.7603
X7.7904Y-1.9178
X7.7904Y-2.0752
X7.7904Y-2.2327
X7.7904Y-2.3902
X7.7904Y-3.1382
X7.7904Y-3.2957
X7.7904Y-3.7288
X7.7904Y-4.0437
X7.7904Y-4.2406
X7.7904Y-5.028
X7.7904Y-5.1855
X7.7904Y-5.776
X7.7904Y-6.1697
T2
X6.8197Y-5.4208
X6.8197Y-5.8208
X5.3628Y-5.3842
X5.3628Y-5.7842
X6.1288Y-1.8656
X6.1288Y-1.9443
X6.1288Y-2.0231
X6.2075Y-1.8656
X6.2075Y-1.9443
X6.2075Y-2.0231
X4.4506Y-3.1466
X4.4506Y-3.5466
X3.3104Y-4.6356
X3.3104Y-4.9356
X3.4104Y-4.6356
X3.4104Y-4.9356
X3.5104Y-4.6356
X3.5104Y-4.9356
X3.6104Y-4.6356
X3.6104Y-4.9356
X3.7104Y-4.6356
X3.7104Y-4.9356
X3.8104Y-4.6356
X3.8104Y-4.9356
X3.9104Y-4.6356
X3.9104Y-4.9356
X4.0104Y-4.6356
X4.0104Y-4.9356
X4.1104Y-4.6356
X4.1104Y-4.9356
X4.2104Y-4.6356
X4.2104Y-4.9356
X2.4099Y-5.4077
X2.4099Y-5.8077
X3.9792Y-5.5986
X3.9792Y-5.7955
X7.108Y-5.6234
X7.108Y-5.8203
X4.3234Y-3.1466
X4.3234Y-3.5466
X3.8142Y-5.3968
X3.8142Y-5.7968
X6.9482Y-4.127
X6.9482Y-4.527
X4.0689Y-3.1466
X4.0689Y-3.5466
X2.5556Y-5.4077
X2.5556Y-5.8077
X6.8992Y-4.7522
X7.2992Y-4.7522
X6.9666Y-5.4208
X6.9666Y-5.8208
X5.5205Y-5.3842
X5.5205Y-5.7842
X3.9417Y-3.1466
X3.9417Y-3.5466
X6.1439Y-1.4538
X6.3408Y-1.4538
X5.6782Y-5.3842
X5.6782Y-5.7842
X3.4926Y-5.3968
X3.4926Y-5.7968
X2.852Y-5.6041
X2.852Y-5.801
X3.6872Y-3.1466
X3.6872Y-3.5466
X4.9044Y-3.1466
X4.9044Y-3.5466
X6.1509Y-1.295
X6.3478Y-1.295
X5.8416Y-5.5854
X5.8416Y-5.7823
X6.6728Y-5.4208
X6.6728Y-5.8208
X5.0345Y-2.4551
X5.0345Y-2.5338
X5.0345Y-2.6126
X5.1132Y-2.4551
X5.1132Y-2.5338
X5.1132Y-2.6126
X5.5951Y-2.6091
X5.5951Y-2.7091
X4.7772Y-3.1466
X4.7772Y-3.5466
X4.952Y-4.6252
X4.952Y-4.9252
X5.052Y-4.6252
X5.052Y-4.9252
X5.152Y-4.6252
X5.152Y-4.9252
X5.252Y-4.6252
X5.252Y-4.9252
X5.352Y-4.6252
X5.352Y-4.9252
X5.452Y-4.6252
X5.452Y-4.9252
X5.552Y-4.6252
X5.552Y-4.9252
X5.652Y-4.6252
X5.652Y-4.9252
X5.752Y-4.6252
X5.752Y-4.9252
X5.852Y-4.6252
X5.852Y-4.9252
X3.8144Y-3.1466
X3.8144Y-3.5466
X3.6534Y-5.3968
X3.6534Y-5.7968
X4.5778Y-3.1466
X4.5778Y-3.5466
X2.6934Y-5.4077
X2.6934Y-5.8077
T3
X6.5356Y-1.0273
X6.5356Y-1.1273
X6.5356Y-1.2273
X6.5356Y-1.3273
X6.6356Y-1.0773
X6.6356Y-1.1773
X6.6356Y-1.2773
X6.6356Y-1.3773
X7.5642Y-4.6356
X7.5642Y-4.7356
T4
X2.336Y-5.952
X2.336Y-6.052
X2.436Y-5.952
X2.436Y-6.052
X2.536Y-5.952
X2.536Y-6.052
X2.636Y-5.952
X2.636Y-6.052
X2.736Y-5.952
X2.736Y-6.052
X2.836Y-5.952
X2.836Y-6.052
X2.936Y-5.952
X2.936Y-6.052
X5.3382Y-5.9404
X5.3382Y-6.0404
X5.4382Y-5.9404
X5.4382Y-6.0404
X5.5382Y-5.9404
X5.5382Y-6.0404
X5.6382Y-5.9404
X5.6382Y-6.0404
X5.7382Y-5.9404
X5.7382Y-6.0404
X5.8382Y-5.9404
X5.8382Y-6.0404
X5.9382Y-5.9404
X5.9382Y-6.0404
X3.4326Y-5.942
X3.4326Y-6.042
X3.5326Y-5.942
X3.5326Y-6.042
X3.6326Y-5.942
X3.6326Y-6.042
X3.7326Y-5.942
X3.7326Y-6.042
X3.8326Y-5.942
X3.8326Y-6.042
X3.9326Y-5.942
X3.9326Y-6.042
X4.0326Y-5.942
X4.0326Y-6.042
X6.6136Y-5.9714
X6.6136Y-6.0714
X6.7136Y-5.9714
X6.7136Y-6.0714
X6.8136Y-5.9714
X6.8136Y-6.0714
X6.9136Y-5.9714
X6.9136Y-6.0714
X7.0136Y-5.9714
X7.0136Y-6.0714
X7.1136Y-5.9714
X7.1136Y-6.0714
X7.2136Y-5.9714
X7.2136Y-6.0714
T5
X7.0187Y-0.9533
X7.0187Y-1.3502
X7.0856Y-1.0543
X7.0856Y-1.4513
T6
X7.1274Y-4.2618
X7.1274Y-4.5177
X7.3046Y-4.2618
X7.3046Y-4.5177
X3.3239Y-2.3591
X3.3239Y-2.9591
X3.4239Y-2.3591
X3.4239Y-2.9591
X3.5239Y-2.3591
X3.5239Y-2.9591
X3.6239Y-2.3591
X3.6239Y-2.9591
X3.7239Y-2.3591
X3.7239Y-2.9591
X3.8239Y-2.3591
X3.8239Y-2.4591
X3.8239Y-2.5591
X3.8239Y-2.6591
X3.8239Y-2.7591
X3.8239Y-2.8591
X3.8239Y-2.9591
X3.9239Y-2.3591
X3.9239Y-2.9591
X4.0239Y-2.3591
X4.0239Y-2.9591
X4.1239Y-2.3591
X4.1239Y-2.9591
X4.2239Y-2.3591
X4.2239Y-2.9591
X4.3239Y-2.3591
X4.3239Y-2.9591
X4.4239Y-2.3591
X4.4239Y-2.9591
X4.5239Y-2.3591
X4.5239Y-2.9591
X4.6239Y-2.3591
X4.6239Y-2.9591
X4.7239Y-2.3591
X4.7239Y-2.9591
X4.8239Y-2.3591
X4.8239Y-2.9591
X4.9239Y-2.3591
X4.9239Y-2.9591
X4.9759Y-2.839
X5.0239Y-2.3591
X5.0239Y-2.9591
X5.0759Y-2.839
X5.1239Y-2.3591
X5.1239Y-2.9591
X5.1759Y-2.839
X5.2239Y-2.3591
X5.2239Y-2.9591
X5.2759Y-2.839
X5.3239Y-2.3591
X5.3239Y-2.9591
X5.3759Y-2.839
X5.4239Y-2.3591
X5.4239Y-2.9591
X5.5239Y-2.3591
X5.5239Y-2.4591
X5.5239Y-2.9591
X5.6239Y-2.3591
X5.6239Y-2.9591
T7
X7.493Y-5.014
X7.493Y-5.214
X1.8766Y-4.268
X1.8766Y-4.468
X1.8906Y-4.9956
X1.8906Y-5.1956
T8
X6.7655Y-0.8972
X6.7655Y-1.5074
T0
M30
